{
.appVersion = "113";
DisplayStrings = (
",",
"/dieresiscomb/dotaccentcomb/gravecomb/acutecomb/hungarumlautcomb/circumflexcomb/caroncomb/brevecomb/ringcomb/tildecomb/macroncomb/commaturnedabovecomb/commaaccentcomb/cedillacomb/ogonekcomb/strokeshortcomb/strokelongcomb/slashshortcomb/slashlongcomb",
"/southWestArrow",
"Á/Cacute ÉÍ/Lacute/Nacute Ó/Racute/Sacute Ú/Wacute Ý/Zacute á/cacute éí/lacute/nacute ó/racute/sacute ú/wacute ý/zacute/acutecomb",
w
);
copyright = "Copyright © 2021 by Tuna Çağlar Gümüş.";
customParameters = (
{
name = license;
value = "SIL OPEN FONT LICENSE Version 1.1";
}
);
date = "2021-04-11 18:32:49 +0000";
designer = "Tuna Çağlar Gümüş";
designerURL = "https://pikseladam.com/";
familyName = Saman;
featurePrefixes = (
{
automatic = 1;
code = "languagesystem DFLT dflt;\012languagesystem latn dflt;\012languagesystem latn ROM;\012languagesystem latn MOL;\012languagesystem latn KAZ;\012languagesystem latn TAT;\012languagesystem latn TRK;\012languagesystem latn CRT;\012languagesystem latn AZE;\012";
name = Languagesystems;
}
);
features = (
{
automatic = 1;
code = "feature locl;\012";
name = aalt;
},
{
automatic = 1;
code = "script latn;\012language ROM;\012sub Scedilla by Scommaaccent;\012sub scedilla by scommaaccent;\012sub Tcedilla by Tcommaaccent;\012sub tcedilla by tcommaaccent;\012language MOL;\012sub Scedilla by Scommaaccent;\012sub scedilla by scommaaccent;\012sub Tcedilla by Tcommaaccent;\012sub tcedilla by tcommaaccent;\012language KAZ;\012sub i by idotaccent;\012language TAT;\012sub i by idotaccent;\012language TRK;\012sub i by idotaccent;\012language CRT;\012sub i by idotaccent;\012language AZE;\012sub i by idotaccent;\012";
name = locl;
}
);
fontMaster = (
{
alignmentZones = (
"{1600, 16}",
"{1400, 16}",
"{1000, 16}",
"{744, 16}",
"{580, 16}",
"{420, -16}",
"{0, -15}"
);
ascender = 1600;
capHeight = 1400;
descender = -400;
id = "A833981A-68C5-4528-81CD-92C717829696";
weightValue = 0;
widthValue = 0;
xHeight = 1000;
}
);
glyphs = (
{
glyphname = A;
lastChange = "2021-04-19 18:00:20 +0000";
layers = (
{
layerId = "A833981A-68C5-4528-81CD-92C717829696";
paths = (
{
closed = 1;
nodes = (
"180 0 LINE",
"440 0 LINE",
"730 1400 LINE",
"470 1400 LINE"
);
},
{
closed = 1;
nodes = (
"324 348 LINE",
"326 156 LINE",
"878 156 LINE",
"876 348 LINE"
);
},
{
closed = 1;
nodes = (
"470 1400 LINE",
"760 0 LINE",
"1020 0 LINE",
"730 1400 LINE"
);
}
);
width = 1200;
}
);
unicode = 0041;
},
{
glyphname = AE;
lastChange = "2021-04-19 18:15:31 +0000";
layers = (
{
layerId = "A833981A-68C5-4528-81CD-92C717829696";
paths = (
{
closed = 1;
nodes = (
"42 0 LINE",
"302 0 LINE",
"622 1400 LINE",
"332 1400 LINE"
);
},
{
closed = 1;
nodes = (
"186 558 LINE",
"186 298 LINE",
"738 298 LINE",
"738 558 LINE"
);
},
{
closed = 1;
nodes = (
"332 1400 LINE",
"622 0 LINE",
"882 0 LINE",
"622 1400 LINE"
);
},
{
closed = 1;
nodes = (
"622 0 LINE",
"882 0 LINE",
"882 1400 LINE",
"622 1400 LINE"
);
},
{
closed = 1;
nodes = (
"670 260 LINE",
"670 0 LINE",
"1462 0 LINE",
"1462 260 LINE"
);
},
{
closed = 1;
nodes = (
"672 1400 LINE",
"672 1140 LINE",
"1462 1140 LINE",
"1462 1400 LINE"
);
},
{
closed = 0;
nodes = (
"882 700 LINE"
);
},
{
closed = 1;
nodes = (
"672 830 LINE",
"672 570 LINE",
"1462 570 LINE",
"1462 830 LINE"
);
}
);
width = 1700;
}
);
unicode = 00C6;
},
{
glyphname = B;
lastChange = "2021-04-19 18:00:32 +0000";
layers = (
{
layerId = "A833981A-68C5-4528-81CD-92C717829696";
paths = (
{
closed = 1;
nodes = (
"42 0 LINE",
"302 0 LINE",
"302 1400 LINE",
"42 1400 LINE"
);
},
{
closed = 1;
nodes = (
"552 560 LINE",
"552 820 LINE",
"180 820 LINE",
"180 560 LINE"
);
},
{
closed = 1;
nodes = (
"552 1140 LINE",
"552 1400 LINE",
"180 1400 LINE",
"180 1140 LINE"
);
},
{
closed = 1;
nodes = (
"552 560 LINE",
"994 560 OFFCURVE",
"992 1400 OFFCURVE",
"552 1400 CURVE",
"552 1140 LINE",
"682 1140 OFFCURVE",
"682 820 OFFCURVE",
"552 820 CURVE"
);
},
{
closed = 1;
nodes = (
"594 0 LINE",
"1032 0 OFFCURVE",
"1030 820 OFFCURVE",
"594 820 CURVE",
"552 560 LINE",
"682 560 OFFCURVE",
"682 258 OFFCURVE",
"552 258 CURVE"
);
},
{
closed = 1;
nodes = (
"594 0 LINE",
"552 258 LINE",
"244 260 LINE",
"244 0 LINE"
);
}
);
width = 1200;
}
);
unicode = 0042;
},
{
glyphname = C;
lastChange = "2021-04-19 18:00:42 +0000";
layers = (
{
layerId = "A833981A-68C5-4528-81CD-92C717829696";
paths = (
{
closed = 1;
nodes = (
"854 0 OFFCURVE",
"1024 174 OFFCURVE",
"1100 402 CURVE",
"846 544 LINE",
"814 388 OFFCURVE",
"730 262 OFFCURVE",
"594 262 CURVE SMOOTH",
"236 262 OFFCURVE",
"236 1140 OFFCURVE",
"594 1138 CURVE SMOOTH",
"716 1138 OFFCURVE",
"796 1038 OFFCURVE",
"834 904 CURVE",
"1082 1044 LINE",
"1000 1248 OFFCURVE",
"836 1400 OFFCURVE",
"594 1400 CURVE SMOOTH",
"-142 1400 OFFCURVE",
"-144 0 OFFCURVE",
"594 0 CURVE SMOOTH"
);
}
);
width = 1200;
}
);
unicode = 0043;
},
{
glyphname = Ccedilla;
lastChange = "2021-04-19 18:15:20 +0000";
layers = (
{
layerId = "A833981A-68C5-4528-81CD-92C717829696";
paths = (
{
closed = 1;
nodes = (
"442 -64 OFFCURVE",
"370 -180 OFFCURVE",
"214 -180 CURVE",
"410 -316 LINE",
"634 -318 OFFCURVE",
"718 -66 OFFCURVE",
"718 22 CURVE",
"442 22 LINE"
);
},
{
closed = 1;
nodes = (
"854 0 OFFCURVE",
"1024 174 OFFCURVE",
"1100 402 CURVE",
"846 544 LINE",
"814 388 OFFCURVE",
"730 262 OFFCURVE",
"594 262 CURVE SMOOTH",
"236 262 OFFCURVE",
"236 1140 OFFCURVE",
"594 1138 CURVE SMOOTH",
"716 1138 OFFCURVE",
"796 1038 OFFCURVE",
"834 904 CURVE",
"1082 1044 LINE",
"1000 1248 OFFCURVE",
"836 1400 OFFCURVE",
"594 1400 CURVE SMOOTH",
"-142 1400 OFFCURVE",
"-144 0 OFFCURVE",
"594 0 CURVE SMOOTH"
);
}
);
width = 1200;
}
);
unicode = 00C7;
},
{
glyphname = D;
lastChange = "2021-04-19 18:00:50 +0000";
layers = (
{
layerId = "A833981A-68C5-4528-81CD-92C717829696";
paths = (
{
closed = 1;
nodes = (
"42 0 LINE",
"302 0 LINE",
"302 1400 LINE",
"42 1400 LINE"
);
},
{
closed = 1;
nodes = (
"90 262 LINE",
"90 0 LINE",
"494 0 LINE",
"494 262 LINE"
);
},
{
closed = 1;
nodes = (
"90 1400 LINE",
"90 1138 LINE",
"494 1138 LINE",
"494 1400 LINE"
);
},
{
closed = 0;
nodes = (
"494 0 LINE"
);
},
{
closed = 1;
nodes = (
"494 0 LINE",
"1232 0 OFFCURVE",
"1230 1400 OFFCURVE",
"494 1400 CURVE",
"494 1138 LINE",
"852 1140 OFFCURVE",
"852 262 OFFCURVE",
"494 262 CURVE"
);
}
);
width = 1200;
}
);
unicode = 0044;
},
{
glyphname = Eth;
lastChange = "2021-04-19 18:15:38 +0000";
layers = (
{
layerId = "A833981A-68C5-4528-81CD-92C717829696";
paths = (
{
closed = 1;
nodes = (
"102 0 LINE",
"362 0 LINE",
"362 1400 LINE",
"102 1400 LINE"
);
},
{
closed = 1;
nodes = (
"150 262 LINE",
"150 0 LINE",
"554 0 LINE",
"554 262 LINE"
);
},
{
closed = 1;
nodes = (
"150 1400 LINE",
"150 1138 LINE",
"554 1138 LINE",
"554 1400 LINE"
);
},
{
closed = 0;
nodes = (
"554 0 LINE"
);
},
{
closed = 1;
nodes = (
"554 0 LINE",
"1292 0 OFFCURVE",
"1290 1400 OFFCURVE",
"554 1400 CURVE",
"554 1138 LINE",
"912 1140 OFFCURVE",
"912 262 OFFCURVE",
"554 262 CURVE"
);
},
{
closed = 1;
nodes = (
"42 530 LINE",
"568 530 LINE",
"568 830 LINE",
"42 830 LINE"
);
}
);
width = 1200;
}
);
unicode = 00D0;
},
{
glyphname = E;
lastChange = "2021-04-19 18:01:01 +0000";
layers = (
{
layerId = "A833981A-68C5-4528-81CD-92C717829696";
paths = (
{
closed = 1;
nodes = (
"42 0 LINE",
"302 0 LINE",
"302 1400 LINE",
"42 1400 LINE"
);
},
{
closed = 1;
nodes = (
"90 260 LINE",
"90 0 LINE",
"882 0 LINE",
"882 260 LINE"
);
},
{
closed = 1;
nodes = (
"92 1400 LINE",
"92 1140 LINE",
"882 1140 LINE",
"882 1400 LINE"
);
},
{
closed = 0;
nodes = (
"302 700 LINE"
);
},
{
closed = 1;
nodes = (
"92 830 LINE",
"92 570 LINE",
"882 570 LINE",
"882 830 LINE"
);
}
);
width = 1200;
}
);
unicode = 0045;
},
{
glyphname = F;
lastChange = "2021-04-19 18:01:18 +0000";
layers = (
{
layerId = "A833981A-68C5-4528-81CD-92C717829696";
paths = (
{
closed = 1;
nodes = (
"42 0 LINE",
"302 0 LINE",
"302 1400 LINE",
"42 1400 LINE"
);
},
{
closed = 1;
nodes = (
"92 1400 LINE",
"92 1140 LINE",
"882 1140 LINE",
"882 1400 LINE"
);
},
{
closed = 0;
nodes = (
"302 700 LINE"
);
},
{
closed = 1;
nodes = (
"92 830 LINE",
"92 570 LINE",
"882 570 LINE",
"882 830 LINE"
);
}
);
width = 1200;
}
);
unicode = 0046;
},
{
glyphname = G;
lastChange = "2021-04-19 18:01:33 +0000";
layers = (
{
layerId = "A833981A-68C5-4528-81CD-92C717829696";
paths = (
{
closed = 1;
nodes = (
"1100 818 LINE",
"840 818 LINE",
"846 544 LINE",
"1100 402 LINE"
);
},
{
closed = 1;
nodes = (
"1016 544 LINE",
"1016 818 LINE",
"522 818 LINE",
"522 544 LINE"
);
},
{
closed = 1;
nodes = (
"854 0 OFFCURVE",
"1024 176 OFFCURVE",
"1100 402 CURVE",
"846 544 LINE",
"814 388 OFFCURVE",
"730 262 OFFCURVE",
"594 262 CURVE SMOOTH",
"236 262 OFFCURVE",
"236 1140 OFFCURVE",
"594 1138 CURVE SMOOTH",
"716 1138 OFFCURVE",
"796 1038 OFFCURVE",
"834 904 CURVE",
"1082 1044 LINE",
"1000 1248 OFFCURVE",
"836 1400 OFFCURVE",
"594 1400 CURVE SMOOTH",
"-142 1400 OFFCURVE",
"-144 0 OFFCURVE",
"594 0 CURVE SMOOTH"
);
}
);
width = 1200;
}
);
unicode = 0047;
},
{
glyphname = H;
lastChange = "2021-04-19 18:01:42 +0000";
layers = (
{
layerId = "A833981A-68C5-4528-81CD-92C717829696";
paths = (
{
closed = 1;
nodes = (
"42 0 LINE",
"302 0 LINE",
"302 1400 LINE",
"42 1400 LINE"
);
},
{
closed = 1;
nodes = (
"622 0 LINE",
"882 0 LINE",
"882 1400 LINE",
"622 1400 LINE"
);
},
{
closed = 1;
nodes = (
"46 740 LINE",
"876 740 LINE",
"876 1000 LINE",
"46 1000 LINE"
);
}
);
width = 1200;
}
);
unicode = 0048;
},
{
glyphname = Hbar;
lastChange = "2021-04-13 12:19:35 +0000";
layers = (
{
components = (
{
name = H;
transform = "{1, 0, 0, 1, 28, 0}";
}
);
layerId = "A833981A-68C5-4528-81CD-92C717829696";
paths = (
{
closed = 1;
nodes = (
"42 553 LINE",
"530 553 LINE",
"530 623 LINE",
"42 623 LINE"
);
}
);
width = 572;
}
);
unicode = 0126;
},
{
glyphname = I;
lastChange = "2021-04-19 18:11:12 +0000";
layers = (
{
layerId = "A833981A-68C5-4528-81CD-92C717829696";
paths = (
{
closed = 1;
nodes = (
"84 0 LINE",
"344 0 LINE",
"344 1400 LINE",
"84 1400 LINE"
);
}
);
width = 428;
}
);
unicode = 0049;
},
{
glyphname = J;
lastChange = "2021-04-19 18:11:47 +0000";
layers = (
{
layerId = "A833981A-68C5-4528-81CD-92C717829696";
paths = (
{
closed = 1;
nodes = (
"392 0 OFFCURVE",
"742 74 OFFCURVE",
"742 442 CURVE",
"482 442 LINE",
"482 262 OFFCURVE",
"262 260 OFFCURVE",
"42 260 CURVE",
"42 0 LINE"
);
},
{
closed = 1;
nodes = (
"742 442 LINE",
"742 1400 LINE",
"482 1400 LINE",
"482 442 LINE"
);
}
);
width = 1200;
}
);
unicode = 004A;
},
{
glyphname = K;
lastChange = "2021-04-19 18:11:55 +0000";
layers = (
{
layerId = "A833981A-68C5-4528-81CD-92C717829696";
paths = (
{
closed = 1;
nodes = (
"42 0 LINE",
"302 0 LINE",
"302 1400 LINE",
"42 1400 LINE"
);
},
{
closed = 1;
nodes = (
"882 1400 LINE",
"622 1400 LINE",
"302 860 LINE",
"302 440 LINE"
);
},
{
closed = 1;
nodes = (
"296 650 LINE",
"594 0 LINE",
"882 0 LINE",
"472 930 LINE"
);
}
);
width = 1200;
}
);
unicode = 004B;
},
{
glyphname = L;
lastChange = "2021-04-19 18:13:15 +0000";
layers = (
{
layerId = "A833981A-68C5-4528-81CD-92C717829696";
paths = (
{
closed = 1;
nodes = (
"42 0 LINE",
"302 0 LINE",
"302 1400 LINE",
"42 1400 LINE"
);
},
{
closed = 1;
nodes = (
"90 260 LINE",
"90 0 LINE",
"882 0 LINE",
"882 260 LINE"
);
}
);
width = 1200;
}
);
unicode = 004C;
},
{
glyphname = M;
lastChange = "2021-04-19 18:13:20 +0000";
layers = (
{
layerId = "A833981A-68C5-4528-81CD-92C717829696";
paths = (
{
closed = 1;
nodes = (
"42 0 LINE",
"302 0 LINE",
"302 1400 LINE",
"42 1400 LINE"
);
},
{
closed = 1;
nodes = (
"942 0 LINE",
"1202 0 LINE",
"1202 1400 LINE",
"942 1400 LINE"
);
},
{
closed = 1;
nodes = (
"302 800 LINE",
"622 0 LINE",
"622 600 LINE",
"302 1400 LINE"
);
},
{
closed = 1;
nodes = (
"622 600 LINE",
"622 0 LINE",
"942 800 LINE",
"942 1400 LINE"
);
}
);
width = 1200;
}
);
unicode = 004D;
},
{
glyphname = N;
lastChange = "2021-04-19 18:13:26 +0000";
layers = (
{
layerId = "A833981A-68C5-4528-81CD-92C717829696";
paths = (
{
closed = 1;
nodes = (
"42 0 LINE",
"302 0 LINE",
"302 1400 LINE",
"42 1400 LINE"
);
},
{
closed = 1;
nodes = (
"622 0 LINE",
"882 0 LINE",
"882 1400 LINE",
"622 1400 LINE"
);
},
{
closed = 1;
nodes = (
"302 800 LINE",
"622 0 LINE",
"622 600 LINE",
"302 1400 LINE"
);
}
);
width = 1200;
}
);
unicode = 004E;
},
{
glyphname = O;
lastChange = "2021-04-19 18:13:46 +0000";
layers = (
{
layerId = "A833981A-68C5-4528-81CD-92C717829696";
paths = (
{
closed = 0;
nodes = (
"594 0 LINE"
);
},
{
closed = 1;
nodes = (
"594 0 LINE",
"1332 0 OFFCURVE",
"1330 1400 OFFCURVE",
"594 1400 CURVE",
"594 1138 LINE",
"952 1140 OFFCURVE",
"952 262 OFFCURVE",
"594 262 CURVE"
);
},
{
closed = 0;
nodes = (
"594 0 LINE"
);
},
{
closed = 1;
nodes = (
"236 262 OFFCURVE",
"236 1140 OFFCURVE",
"594 1138 CURVE",
"594 1400 LINE",
"-142 1400 OFFCURVE",
"-144 0 OFFCURVE",
"594 0 CURVE",
"594 262 LINE"
);
}
);
width = 1200;
}
);
unicode = 004F;
},
{
glyphname = Odieresis;
lastChange = "2021-04-13 12:43:55 +0000";
layers = (
{
components = (
{
alignment = -1;
name = dieresiscomb;
transform = "{1, 0, 0, 1, 66, 200}";
}
);
layerId = "A833981A-68C5-4528-81CD-92C717829696";
paths = (
{
closed = 0;
nodes = (
"318 0 LINE"
);
},
{
closed = 1;
nodes = (
"318 0 LINE",
"687 0 OFFCURVE",
"686 700 OFFCURVE",
"318 700 CURVE",
"318 569 LINE",
"497 570 OFFCURVE",
"497 131 OFFCURVE",
"318 131 CURVE"
);
},
{
closed = 0;
nodes = (
"318 0 LINE"
);
},
{
closed = 1;
nodes = (
"139 131 OFFCURVE",
"139 570 OFFCURVE",
"318 569 CURVE",
"318 700 LINE",
"-50 700 OFFCURVE",
"-51 0 OFFCURVE",
"318 0 CURVE",
"318 131 LINE"
);
}
);
width = 636;
}
);
unicode = 00D6;
},
{
glyphname = OE;
lastChange = "2021-04-19 18:14:22 +0000";
layers = (
{
layerId = "A833981A-68C5-4528-81CD-92C717829696";
paths = (
{
closed = 0;
nodes = (
"594 0 LINE"
);
},
{
closed = 1;
nodes = (
"594 0 LINE",
"1332 0 OFFCURVE",
"1330 1400 OFFCURVE",
"594 1400 CURVE",
"594 1138 LINE",
"952 1140 OFFCURVE",
"952 262 OFFCURVE",
"594 262 CURVE"
);
},
{
closed = 0;
nodes = (
"594 0 LINE"
);
},
{
closed = 1;
nodes = (
"236 262 OFFCURVE",
"236 1140 OFFCURVE",
"594 1138 CURVE",
"594 1400 LINE",
"-142 1400 OFFCURVE",
"-144 0 OFFCURVE",
"594 0 CURVE",
"594 262 LINE"
);
},
{
closed = 1;
nodes = (
"952 0 LINE",
"1212 0 LINE",
"1212 1400 LINE",
"952 1400 LINE"
);
},
{
closed = 1;
nodes = (
"1000 260 LINE",
"1000 0 LINE",
"1792 0 LINE",
"1792 260 LINE"
);
},
{
closed = 1;
nodes = (
"1002 1400 LINE",
"1002 1140 LINE",
"1792 1140 LINE",
"1792 1400 LINE"
);
},
{
closed = 0;
nodes = (
"1212 700 LINE"
);
},
{
closed = 1;
nodes = (
"1002 830 LINE",
"1002 570 LINE",
"1792 570 LINE",
"1792 830 LINE"
);
}
);
width = 2600;
}
);
unicode = 0152;
},
{
glyphname = P;
lastChange = "2021-04-19 18:14:01 +0000";
layers = (
{
layerId = "A833981A-68C5-4528-81CD-92C717829696";
paths = (
{
closed = 1;
nodes = (
"42 0 LINE",
"302 0 LINE",
"302 1400 LINE",
"42 1400 LINE"
);
},
{
closed = 1;
nodes = (
"552 560 LINE",
"552 820 LINE",
"180 820 LINE",
"180 560 LINE"
);
},
{
closed = 1;
nodes = (
"552 1140 LINE",
"552 1400 LINE",
"180 1400 LINE",
"180 1140 LINE"
);
},
{
closed = 1;
nodes = (
"552 560 LINE",
"994 562 OFFCURVE",
"992 1402 OFFCURVE",
"552 1400 CURVE",
"552 1140 LINE",
"682 1140 OFFCURVE",
"682 820 OFFCURVE",
"552 820 CURVE"
);
}
);
width = 1200;
}
);
unicode = 0050;
},
{
glyphname = Thorn;
lastChange = "2021-04-13 11:21:57 +0000";
layers = (
{
layerId = "A833981A-68C5-4528-81CD-92C717829696";
paths = (
{
closed = 1;
nodes = (
"42 0 LINE",
"172 0 LINE",
"172 700 LINE",
"42 700 LINE"
);
},
{
closed = 1;
nodes = (
"297 190 LINE",
"297 320 LINE",
"111 320 LINE",
"111 190 LINE"
);
},
{
closed = 1;
nodes = (
"297 480 LINE",
"297 610 LINE",
"111 610 LINE",
"111 480 LINE"
);
},
{
closed = 1;
nodes = (
"297 190 LINE",
"518 191 OFFCURVE",
"517 611 OFFCURVE",
"297 610 CURVE",
"297 480 LINE",
"362 480 OFFCURVE",
"362 320 OFFCURVE",
"297 320 CURVE"
);
}
);
width = 504;
}
);
unicode = 00DE;
},
{
glyphname = Q;
lastChange = "2021-04-13 11:21:57 +0000";
layers = (
{
layerId = "A833981A-68C5-4528-81CD-92C717829696";
paths = (
{
closed = 0;
nodes = (
"318 0 LINE"
);
},
{
closed = 1;
nodes = (
"318 0 LINE",
"687 0 OFFCURVE",
"686 700 OFFCURVE",
"318 700 CURVE",
"318 569 LINE",
"497 570 OFFCURVE",
"497 131 OFFCURVE",
"318 131 CURVE"
);
},
{
closed = 0;
nodes = (
"318 0 LINE"
);
},
{
closed = 1;
nodes = (
"139 131 OFFCURVE",
"139 570 OFFCURVE",
"318 569 CURVE",
"318 700 LINE",
"-50 700 OFFCURVE",
"-51 0 OFFCURVE",
"318 0 CURVE",
"318 131 LINE"
);
},
{
closed = 1;
nodes = (
"528 -75 LINE",
"640 44 LINE",
"530 162 LINE",
"420 44 LINE"
);
}
);
width = 682;
}
);
unicode = 0051;
},
{
glyphname = R;
lastChange = "2021-04-19 18:14:04 +0000";
layers = (
{
layerId = "A833981A-68C5-4528-81CD-92C717829696";
paths = (
{
closed = 1;
nodes = (
"42 0 LINE",
"302 0 LINE",
"302 1400 LINE",
"42 1400 LINE"
);
},
{
closed = 1;
nodes = (
"552 560 LINE",
"552 820 LINE",
"180 820 LINE",
"180 560 LINE"
);
},
{
closed = 1;
nodes = (
"552 1140 LINE",
"552 1400 LINE",
"180 1400 LINE",
"180 1140 LINE"
);
},
{
closed = 1;
nodes = (
"552 560 LINE",
"994 562 OFFCURVE",
"992 1400 OFFCURVE",
"552 1400 CURVE",
"552 1140 LINE",
"682 1140 OFFCURVE",
"682 820 OFFCURVE",
"552 820 CURVE"
);
},
{
closed = 1;
nodes = (
"638 0 LINE",
"918 0 LINE",
"700 644 LINE",
"420 644 LINE"
);
}
);
width = 1200;
}
);
unicode = 0052;
},
{
glyphname = S;
lastChange = "2021-04-19 18:14:08 +0000";
layers = (
{
layerId = "A833981A-68C5-4528-81CD-92C717829696";
paths = (
{
closed = 1;
nodes = (
"738 824 OFFCURVE",
"940 644 OFFCURVE",
"940 414 CURVE SMOOTH",
"940 182 OFFCURVE",
"738 0 OFFCURVE",
"494 0 CURVE SMOOTH",
"244 0 OFFCURVE",
"42 182 OFFCURVE",
"42 414 CURVE",
"298 414 LINE",
"298 340 OFFCURVE",
"388 238 OFFCURVE",
"494 238 CURVE SMOOTH",
"598 238 OFFCURVE",
"682 340 OFFCURVE",
"682 414 CURVE SMOOTH",
"682 484 OFFCURVE",
"598 574 OFFCURVE",
"494 574 CURVE",
"494 824 LINE"
);
},
{
closed = 1;
nodes = (
"250 574 OFFCURVE",
"48 756 OFFCURVE",
"48 986 CURVE SMOOTH",
"48 1220 OFFCURVE",
"250 1400 OFFCURVE",
"494 1400 CURVE SMOOTH",
"744 1400 OFFCURVE",
"946 1220 OFFCURVE",
"946 986 CURVE",
"690 986 LINE",
"690 1056 OFFCURVE",
"600 1160 OFFCURVE",
"494 1160 CURVE SMOOTH",
"390 1160 OFFCURVE",
"306 1056 OFFCURVE",
"306 986 CURVE SMOOTH",
"306 910 OFFCURVE",
"390 824 OFFCURVE",
"494 824 CURVE",
"494 574 LINE"
);
}
);
width = 1200;
}
);
unicode = 0053;
},
{
glyphname = Scedilla;
lastChange = "2021-04-13 11:21:57 +0000";
layers = (
{
components = (
{
name = cedillacomb;
transform = "{1, 0, 0, 1, -22, 0}";
}
);
layerId = "A833981A-68C5-4528-81CD-92C717829696";
paths = (
{
closed = 1;
nodes = (
"268 287 LINE",
"320 287 OFFCURVE",
"362 242 OFFCURVE",
"362 207 CURVE SMOOTH",
"362 170 OFFCURVE",
"320 119 OFFCURVE",
"268 119 CURVE SMOOTH",
"215 119 OFFCURVE",
"170 170 OFFCURVE",
"170 207 CURVE",
"42 207 LINE",
"42 91 OFFCURVE",
"143 0 OFFCURVE",
"268 0 CURVE SMOOTH",
"390 0 OFFCURVE",
"491 91 OFFCURVE",
"491 207 CURVE SMOOTH",
"491 322 OFFCURVE",
"390 412 OFFCURVE",
"268 412 CURVE"
);
},
{
closed = 1;
nodes = (
"146 287 OFFCURVE",
"45 378 OFFCURVE",
"45 493 CURVE SMOOTH",
"45 610 OFFCURVE",
"146 700 OFFCURVE",
"268 700 CURVE SMOOTH",
"393 700 OFFCURVE",
"494 610 OFFCURVE",
"494 493 CURVE",
"366 493 LINE",
"366 528 OFFCURVE",
"321 580 OFFCURVE",
"268 580 CURVE SMOOTH",
"216 580 OFFCURVE",
"174 528 OFFCURVE",
"174 493 CURVE SMOOTH",
"174 455 OFFCURVE",
"216 412 OFFCURVE",
"268 412 CURVE",
"268 287 LINE"
);
}
);
width = 536;
}
);
unicode = 015E;
},
{
glyphname = T;
lastChange = "2021-04-19 18:14:11 +0000";
layers = (
{
layerId = "A833981A-68C5-4528-81CD-92C717829696";
paths = (
{
closed = 1;
nodes = (
"332 0 LINE",
"592 0 LINE",
"592 1400 LINE",
"332 1400 LINE"
);
},
{
closed = 1;
nodes = (
"42 1400 LINE",
"42 1140 LINE",
"882 1140 LINE",
"882 1400 LINE"
);
}
);
width = 1200;
}
);
unicode = 0054;
},
{
glyphname = Tcedilla;
lastChange = "2021-04-13 12:35:33 +0000";
layers = (
{
components = (
{
name = T;
}
);
layerId = "A833981A-68C5-4528-81CD-92C717829696";
paths = (
{
closed = 1;
nodes = (
"187 -43 OFFCURVE",
"153 -101 OFFCURVE",
"80 -101 CURVE",
"172 -169 LINE",
"277 -170 OFFCURVE",
"317 -44 OFFCURVE",
"317 0 CURVE",
"187 0 LINE"
);
}
);
width = 504;
}
);
unicode = 0162;
},
{
glyphname = U;
lastChange = "2021-04-19 18:14:28 +0000";
layers = (
{
layerId = "A833981A-68C5-4528-81CD-92C717829696";
paths = (
{
closed = 1;
nodes = (
"42 330 LINE",
"302 330 LINE",
"302 1400 LINE",
"42 1400 LINE"
);
},
{
closed = 1;
nodes = (
"622 330 LINE",
"882 330 LINE",
"882 1400 LINE",
"622 1400 LINE"
);
},
{
closed = 1;
nodes = (
"42 330 LINE",
"44 -112 OFFCURVE",
"884 -110 OFFCURVE",
"882 330 CURVE",
"622 330 LINE",
"622 200 OFFCURVE",
"302 200 OFFCURVE",
"302 330 CURVE"
);
}
);
width = 1200;
}
);
unicode = 0055;
},
{
glyphname = Udieresis;
lastChange = "2021-04-13 12:44:08 +0000";
layers = (
{
components = (
{
alignment = -1;
name = dieresiscomb;
transform = "{1, 0, 0, 1, 0, 200}";
}
);
layerId = "A833981A-68C5-4528-81CD-92C717829696";
paths = (
{
closed = 1;
nodes = (
"42 165 LINE",
"172 165 LINE",
"172 700 LINE",
"42 700 LINE"
);
},
{
closed = 1;
nodes = (
"332 165 LINE",
"462 165 LINE",
"462 700 LINE",
"332 700 LINE"
);
},
{
closed = 1;
nodes = (
"42 165 LINE",
"43 -56 OFFCURVE",
"463 -55 OFFCURVE",
"462 165 CURVE",
"332 165 LINE",
"332 100 OFFCURVE",
"172 100 OFFCURVE",
"172 165 CURVE"
);
}
);
width = 504;
}
);
unicode = 00DC;
},
{
glyphname = V;
lastChange = "2021-04-19 18:14:31 +0000";
layers = (
{
layerId = "A833981A-68C5-4528-81CD-92C717829696";
paths = (
{
closed = 1;
nodes = (
"592 0 LINE",
"302 1400 LINE",
"42 1400 LINE",
"332 0 LINE"
);
},
{
closed = 1;
nodes = (
"882 1400 LINE",
"622 1400 LINE",
"332 0 LINE",
"592 0 LINE"
);
}
);
width = 1200;
}
);
unicode = 0056;
},
{
glyphname = W;
lastChange = "2021-04-19 18:14:51 +0000";
layers = (
{
layerId = "A833981A-68C5-4528-81CD-92C717829696";
paths = (
{
closed = 1;
nodes = (
"592 0 LINE",
"302 1400 LINE",
"42 1400 LINE",
"332 0 LINE"
);
},
{
closed = 1;
nodes = (
"882 1400 LINE",
"622 1400 LINE",
"332 0 LINE",
"592 0 LINE"
);
},
{
closed = 1;
nodes = (
"1172 0 LINE",
"882 1400 LINE",
"622 1400 LINE",
"912 0 LINE"
);
},
{
closed = 1;
nodes = (
"1462 1400 LINE",
"1202 1400 LINE",
"912 0 LINE",
"1172 0 LINE"
);
}
);
width = 1600;
}
);
unicode = 0057;
},
{
glyphname = X;
lastChange = "2021-04-19 18:47:41 +0000";
layers = (
{
layerId = "A833981A-68C5-4528-81CD-92C717829696";
paths = (
{
closed = 1;
nodes = (
"634 0 LINE",
"896 0 LINE",
"282 1400 LINE",
"44 1400 LINE"
);
},
{
closed = 1;
nodes = (
"42 0 LINE",
"302 0 LINE",
"896 1260 LINE",
"634 1260 LINE"
);
},
{
closed = 1;
nodes = (
"634 1260 LINE",
"896 1260 LINE",
"896 1400 LINE",
"634 1400 LINE"
);
}
);
width = 1200;
}
);
unicode = 0058;
},
{
glyphname = Y;
lastChange = "2021-04-19 18:14:38 +0000";
layers = (
{
layerId = "A833981A-68C5-4528-81CD-92C717829696";
paths = (
{
closed = 1;
nodes = (
"592 572 LINE",
"302 1400 LINE",
"42 1400 LINE",
"332 572 LINE"
);
},
{
closed = 1;
nodes = (
"882 1400 LINE",
"622 1400 LINE",
"332 572 LINE",
"592 572 LINE"
);
},
{
closed = 1;
nodes = (
"332 0 LINE",
"592 0 LINE",
"592 572 LINE",
"332 572 LINE"
);
}
);
width = 1200;
}
);
unicode = 0059;
},
{
glyphname = Z;
lastChange = "2021-04-19 18:14:43 +0000";
layers = (
{
layerId = "A833981A-68C5-4528-81CD-92C717829696";
paths = (
{
closed = 1;
nodes = (
"42 260 LINE",
"302 260 LINE",
"882 1140 LINE",
"622 1140 LINE"
);
},
{
closed = 1;
nodes = (
"42 260 LINE",
"42 0 LINE",
"882 0 LINE",
"882 260 LINE"
);
},
{
closed = 1;
nodes = (
"82 1400 LINE",
"82 1140 LINE",
"882 1140 LINE",
"882 1400 LINE"
);
},
{
closed = 0;
nodes = (
"302 700 LINE"
);
}
);
width = 1200;
}
);
unicode = 005A;
},
{
glyphname = a;
lastChange = "2021-04-19 18:18:07 +0000";
layers = (
{
layerId = "A833981A-68C5-4528-81CD-92C717829696";
paths = (
{
closed = 1;
nodes = (
"562 504 OFFCURVE",
"596 464 OFFCURVE",
"596 348 CURVE",
"858 348 LINE",
"858 688 OFFCURVE",
"628 678 OFFCURVE",
"428 678 CURVE",
"436 504 LINE"
);
},
{
closed = 1;
nodes = (
"858 348 LINE"
);
},
{
closed = 1;
nodes = (
"428 0 LINE"
);
},
{
closed = 1;
nodes = (
"858 348 LINE"
);
},
{
closed = 1;
nodes = (
"428 0 LINE",
"630 20 OFFCURVE",
"858 146 OFFCURVE",
"858 348 CURVE",
"596 348 LINE",
"596 244 OFFCURVE",
"522 202 OFFCURVE",
"396 202 CURVE"
);
},
{
closed = 1;
nodes = (
"340 202 OFFCURVE",
"264 224 OFFCURVE",
"264 348 CURVE",
"42 348 LINE",
"42 8 OFFCURVE",
"228 0 OFFCURVE",
"428 0 CURVE",
"428 202 LINE"
);
},
{
closed = 1;
nodes = (
"472 678 LINE",
"272 678 OFFCURVE",
"42 688 OFFCURVE",
"42 348 CURVE",
"264 348 LINE",
"264 406 OFFCURVE",
"266 506 OFFCURVE",
"472 504 CURVE"
);
},
{
closed = 1;
nodes = (
"150 796 LINE",
"556 842 OFFCURVE",
"656 792 OFFCURVE",
"656 662 CURVE",
"858 348 LINE",
"858 942 OFFCURVE",
"780 1100 OFFCURVE",
"150 1000 CURVE"
);
},
{
closed = 1;
nodes = (
"660 0 LINE",
"856 0 LINE",
"858 348 LINE",
"658 200 LINE"
);
}
);
width = 1200;
}
);
unicode = 0061;
},
{
glyphname = ae;
lastChange = "2021-04-19 18:47:56 +0000";
layers = (
{
layerId = "A833981A-68C5-4528-81CD-92C717829696";
paths = (
{
closed = 1;
nodes = (
"562 504 OFFCURVE",
"596 464 OFFCURVE",
"596 348 CURVE",
"858 348 LINE",
"858 688 OFFCURVE",
"628 678 OFFCURVE",
"428 678 CURVE",
"436 504 LINE"
);
},
{
closed = 1;
nodes = (
"858 348 LINE"
);
},
{
closed = 1;
nodes = (
"428 0 LINE"
);
},
{
closed = 1;
nodes = (
"858 348 LINE"
);
},
{
closed = 1;
nodes = (
"428 0 LINE",
"630 20 OFFCURVE",
"858 146 OFFCURVE",
"858 348 CURVE",
"596 348 LINE",
"596 244 OFFCURVE",
"522 202 OFFCURVE",
"396 202 CURVE"
);
},
{
closed = 1;
nodes = (
"340 202 OFFCURVE",
"264 224 OFFCURVE",
"264 348 CURVE",
"42 348 LINE",
"42 8 OFFCURVE",
"228 0 OFFCURVE",
"428 0 CURVE",
"428 202 LINE"
);
},
{
closed = 1;
nodes = (
"472 678 LINE",
"272 678 OFFCURVE",
"42 688 OFFCURVE",
"42 348 CURVE",
"264 348 LINE",
"264 406 OFFCURVE",
"266 506 OFFCURVE",
"472 504 CURVE"
);
},
{
closed = 1;
nodes = (
"150 796 LINE",
"556 842 OFFCURVE",
"656 792 OFFCURVE",
"656 662 CURVE",
"858 348 LINE",
"858 942 OFFCURVE",
"780 1100 OFFCURVE",
"150 1000 CURVE"
);
},
{
closed = 1;
nodes = (
"660 0 LINE",
"856 0 LINE",
"858 348 LINE",
"658 200 LINE"
);
},
{
closed = 1;
nodes = (
"940 420 LINE",
"940 580 LINE",
"682 580 LINE",
"682 420 LINE"
);
},
{
closed = 0;
nodes = (
"940 56 LINE"
);
},
{
closed = 0;
nodes = (
"940 56 LINE"
);
},
{
closed = 0;
nodes = (
"940 56 LINE"
);
},
{
closed = 1;
nodes = (
"1090 0 LINE",
"1334 0 OFFCURVE",
"1414 48 OFFCURVE",
"1472 170 CURVE",
"1306 314 LINE",
"1254 238 OFFCURVE",
"1136 256 OFFCURVE",
"1070 256 CURVE"
);
},
{
closed = 1;
nodes = (
"974 256 OFFCURVE",
"940 314 OFFCURVE",
"940 420 CURVE",
"682 420 LINE",
"682 170 OFFCURVE",
"870 0 OFFCURVE",
"1090 0 CURVE",
"1070 256 LINE"
);
},
{
closed = 1;
nodes = (
"1196 744 OFFCURVE",
"1258 708 OFFCURVE",
"1258 600 CURVE",
"1520 600 LINE",
"1520 868 OFFCURVE",
"1290 1000 OFFCURVE",
"1090 1000 CURVE",
"1070 744 LINE"
);
},
{
closed = 1;
nodes = (
"1090 1000 LINE",
"870 1000 OFFCURVE",
"682 830 OFFCURVE",
"682 580 CURVE",
"940 580 LINE",
"940 686 OFFCURVE",
"974 744 OFFCURVE",
"1070 744 CURVE"
);
},
{
closed = 1;
nodes = (
"912 438 LINE",
"1520 440 LINE",
"1520 600 LINE",
"912 600 LINE"
);
}
);
width = 2000;
}
);
unicode = 00E6;
},
{
glyphname = b;
lastChange = "2021-04-19 18:18:12 +0000";
layers = (
{
layerId = "A833981A-68C5-4528-81CD-92C717829696";
paths = (
{
closed = 1;
nodes = (
"280 0 LINE",
"302 56 LINE",
"302 1400 LINE",
"42 1400 LINE",
"42 0 LINE"
);
},
{
closed = 1;
nodes = (
"882 420 LINE",
"882 508 LINE",
"620 508 LINE",
"620 420 LINE"
);
},
{
closed = 1;
nodes = (
"452 0 LINE",
"652 0 OFFCURVE",
"882 80 OFFCURVE",
"882 420 CURVE",
"620 420 LINE",
"620 272 OFFCURVE",
"558 256 OFFCURVE",
"432 256 CURVE"
);
},
{
closed = 1;
nodes = (
"336 256 OFFCURVE",
"302 314 OFFCURVE",
"302 420 CURVE",
"152 420 LINE",
"152 170 OFFCURVE",
"232 0 OFFCURVE",
"452 0 CURVE",
"432 256 LINE"
);
},
{
closed = 1;
nodes = (
"882 420 LINE",
"882 508 LINE",
"620 508 LINE",
"620 420 LINE"
);
},
{
closed = 1;
nodes = (
"452 0 LINE",
"652 0 OFFCURVE",
"882 80 OFFCURVE",
"882 420 CURVE",
"620 420 LINE",
"620 272 OFFCURVE",
"558 256 OFFCURVE",
"432 256 CURVE"
);
},
{
closed = 1;
nodes = (
"336 256 OFFCURVE",
"302 314 OFFCURVE",
"302 420 CURVE",
"152 420 LINE",
"152 170 OFFCURVE",
"232 0 OFFCURVE",
"452 0 CURVE",
"432 256 LINE"
);
},
{
closed = 1;
nodes = (
"882 420 LINE",
"882 508 LINE",
"620 508 LINE",
"620 420 LINE"
);
},
{
closed = 1;
nodes = (
"452 0 LINE",
"652 0 OFFCURVE",
"882 80 OFFCURVE",
"882 420 CURVE",
"620 420 LINE",
"620 272 OFFCURVE",
"558 256 OFFCURVE",
"432 256 CURVE"
);
},
{
closed = 1;
nodes = (
"336 256 OFFCURVE",
"302 314 OFFCURVE",
"302 420 CURVE",
"152 420 LINE",
"152 170 OFFCURVE",
"232 0 OFFCURVE",
"452 0 CURVE",
"432 256 LINE"
);
},
{
closed = 1;
nodes = (
"882 420 LINE",
"882 508 LINE",
"620 508 LINE",
"620 420 LINE"
);
},
{
closed = 1;
nodes = (
"452 0 LINE",
"652 0 OFFCURVE",
"882 80 OFFCURVE",
"882 420 CURVE",
"620 420 LINE",
"620 272 OFFCURVE",
"558 256 OFFCURVE",
"432 256 CURVE"
);
},
{
closed = 1;
nodes = (
"336 256 OFFCURVE",
"302 314 OFFCURVE",
"302 420 CURVE",
"152 420 LINE",
"152 170 OFFCURVE",
"232 0 OFFCURVE",
"452 0 CURVE",
"432 256 LINE"
);
},
{
closed = 1;
nodes = (
"620 508 LINE",
"882 508 LINE",
"882 580 LINE",
"620 580 LINE"
);
},
{
closed = 1;
nodes = (
"558 744 OFFCURVE",
"620 728 OFFCURVE",
"620 580 CURVE",
"882 580 LINE",
"882 920 OFFCURVE",
"652 1000 OFFCURVE",
"452 1000 CURVE",
"432 744 LINE"
);
},
{
closed = 1;
nodes = (
"452 1000 LINE",
"232 1000 OFFCURVE",
"152 830 OFFCURVE",
"152 580 CURVE",
"302 580 LINE",
"302 686 OFFCURVE",
"336 744 OFFCURVE",
"432 744 CURVE"
);
},
{
closed = 1;
nodes = (
"620 508 LINE",
"882 508 LINE",
"882 580 LINE",
"620 580 LINE"
);
},
{
closed = 1;
nodes = (
"558 744 OFFCURVE",
"620 728 OFFCURVE",
"620 580 CURVE",
"882 580 LINE",
"882 920 OFFCURVE",
"652 1000 OFFCURVE",
"452 1000 CURVE",
"432 744 LINE"
);
},
{
closed = 1;
nodes = (
"452 1000 LINE",
"232 1000 OFFCURVE",
"152 830 OFFCURVE",
"152 580 CURVE",
"302 580 LINE",
"302 686 OFFCURVE",
"336 744 OFFCURVE",
"432 744 CURVE"
);
},
{
closed = 1;
nodes = (
"620 508 LINE",
"882 508 LINE",
"882 580 LINE",
"620 580 LINE"
);
},
{
closed = 1;
nodes = (
"558 744 OFFCURVE",
"620 728 OFFCURVE",
"620 580 CURVE",
"882 580 LINE",
"882 920 OFFCURVE",
"652 1000 OFFCURVE",
"452 1000 CURVE",
"432 744 LINE"
);
},
{
closed = 1;
nodes = (
"452 1000 LINE",
"232 1000 OFFCURVE",
"152 830 OFFCURVE",
"152 580 CURVE",
"302 580 LINE",
"302 686 OFFCURVE",
"336 744 OFFCURVE",
"432 744 CURVE"
);
},
{
closed = 1;
nodes = (
"620 508 LINE",
"882 508 LINE",
"882 580 LINE",
"620 580 LINE"
);
},
{
closed = 1;
nodes = (
"558 744 OFFCURVE",
"620 728 OFFCURVE",
"620 580 CURVE",
"882 580 LINE",
"882 920 OFFCURVE",
"652 1000 OFFCURVE",
"452 1000 CURVE",
"432 744 LINE"
);
},
{
closed = 1;
nodes = (
"452 1000 LINE",
"232 1000 OFFCURVE",
"152 830 OFFCURVE",
"152 580 CURVE",
"302 580 LINE",
"302 686 OFFCURVE",
"336 744 OFFCURVE",
"432 744 CURVE"
);
}
);
width = 1200;
}
);
unicode = 0062;
},
{
glyphname = c;
lastChange = "2021-04-19 18:18:17 +0000";
layers = (
{
layerId = "A833981A-68C5-4528-81CD-92C717829696";
paths = (
{
closed = 1;
nodes = (
"300 420 LINE",
"300 580 LINE",
"42 580 LINE",
"42 420 LINE"
);
},
{
closed = 0;
nodes = (
"300 56 LINE"
);
},
{
closed = 0;
nodes = (
"300 56 LINE"
);
},
{
closed = 0;
nodes = (
"300 56 LINE"
);
},
{
closed = 1;
nodes = (
"450 0 LINE",
"650 0 OFFCURVE",
"880 66 OFFCURVE",
"880 354 CURVE",
"618 354 LINE",
"618 256 OFFCURVE",
"556 256 OFFCURVE",
"430 256 CURVE"
);
},
{
closed = 1;
nodes = (
"334 256 OFFCURVE",
"300 314 OFFCURVE",
"300 420 CURVE",
"42 420 LINE",
"42 170 OFFCURVE",
"230 0 OFFCURVE",
"450 0 CURVE",
"430 256 LINE"
);
},
{
closed = 1;
nodes = (
"556 744 OFFCURVE",
"618 754 OFFCURVE",
"618 646 CURVE",
"880 646 LINE",
"880 914 OFFCURVE",
"650 1000 OFFCURVE",
"450 1000 CURVE",
"430 744 LINE"
);
},
{
closed = 1;
nodes = (
"450 1000 LINE",
"230 1000 OFFCURVE",
"42 830 OFFCURVE",
"42 580 CURVE",
"300 580 LINE",
"300 686 OFFCURVE",
"334 744 OFFCURVE",
"430 744 CURVE"
);
}
);
width = 1200;
}
);
unicode = 0063;
},
{
glyphname = ccedilla;
lastChange = "2021-04-13 11:22:22 +0000";
layers = (
{
components = (
{
name = cedillacomb;
transform = "{1, 0, 0, 1, -38, 0}";
}
);
layerId = "A833981A-68C5-4528-81CD-92C717829696";
paths = (
{
closed = 1;
nodes = (
"171 210 LINE",
"171 290 LINE",
"42 290 LINE",
"42 210 LINE"
);
},
{
closed = 0;
nodes = (
"171 28 LINE"
);
},
{
closed = 0;
nodes = (
"171 28 LINE"
);
},
{
closed = 0;
nodes = (
"171 28 LINE"
);
},
{
closed = 1;
nodes = (
"246 0 LINE",
"346 0 OFFCURVE",
"461 33 OFFCURVE",
"461 177 CURVE",
"330 177 LINE",
"330 128 OFFCURVE",
"299 128 OFFCURVE",
"236 128 CURVE"
);
},
{
closed = 1;
nodes = (
"188 128 OFFCURVE",
"171 157 OFFCURVE",
"171 210 CURVE",
"42 210 LINE",
"42 85 OFFCURVE",
"136 0 OFFCURVE",
"246 0 CURVE",
"236 128 LINE"
);
},
{
closed = 1;
nodes = (
"299 372 OFFCURVE",
"330 377 OFFCURVE",
"330 323 CURVE",
"461 323 LINE",
"461 457 OFFCURVE",
"346 500 OFFCURVE",
"246 500 CURVE",
"236 372 LINE"
);
},
{
closed = 1;
nodes = (
"246 500 LINE",
"136 500 OFFCURVE",
"42 415 OFFCURVE",
"42 290 CURVE",
"171 290 LINE",
"171 343 OFFCURVE",
"188 372 OFFCURVE",
"236 372 CURVE"
);
}
);
width = 503;
}
);
unicode = 00E7;
},
{
glyphname = d;
lastChange = "2021-04-19 18:18:22 +0000";
layers = (
{
layerId = "A833981A-68C5-4528-81CD-92C717829696";
paths = (
{
closed = 1;
nodes = (
"882 1400 LINE",
"622 1400 LINE",
"622 56 LINE",
"644 0 LINE",
"882 0 LINE"
);
},
{
closed = 1;
nodes = (
"304 508 LINE",
"42 508 LINE",
"42 420 LINE",
"304 420 LINE"
);
},
{
closed = 1;
nodes = (
"366 256 OFFCURVE",
"304 272 OFFCURVE",
"304 420 CURVE",
"42 420 LINE",
"42 80 OFFCURVE",
"272 0 OFFCURVE",
"472 0 CURVE",
"492 256 LINE"
);
},
{
closed = 1;
nodes = (
"472 0 LINE",
"692 0 OFFCURVE",
"772 170 OFFCURVE",
"772 420 CURVE",
"622 420 LINE",
"622 314 OFFCURVE",
"588 256 OFFCURVE",
"492 256 CURVE"
);
},
{
closed = 0;
nodes = (
"622 56 LINE"
);
},
{
closed = 1;
nodes = (
"304 508 LINE",
"42 508 LINE",
"42 420 LINE",
"304 420 LINE"
);
},
{
closed = 1;
nodes = (
"366 256 OFFCURVE",
"304 272 OFFCURVE",
"304 420 CURVE",
"42 420 LINE",
"42 80 OFFCURVE",
"272 0 OFFCURVE",
"472 0 CURVE",
"492 256 LINE"
);
},
{
closed = 1;
nodes = (
"472 0 LINE",
"692 0 OFFCURVE",
"772 170 OFFCURVE",
"772 420 CURVE",
"622 420 LINE",
"622 314 OFFCURVE",
"588 256 OFFCURVE",
"492 256 CURVE"
);
},
{
closed = 0;
nodes = (
"622 56 LINE"
);
},
{
closed = 1;
nodes = (
"304 508 LINE",
"42 508 LINE",
"42 420 LINE",
"304 420 LINE"
);
},
{
closed = 1;
nodes = (
"366 256 OFFCURVE",
"304 272 OFFCURVE",
"304 420 CURVE",
"42 420 LINE",
"42 80 OFFCURVE",
"272 0 OFFCURVE",
"472 0 CURVE",
"492 256 LINE"
);
},
{
closed = 1;
nodes = (
"472 0 LINE",
"692 0 OFFCURVE",
"772 170 OFFCURVE",
"772 420 CURVE",
"622 420 LINE",
"622 314 OFFCURVE",
"588 256 OFFCURVE",
"492 256 CURVE"
);
},
{
closed = 1;
nodes = (
"304 508 LINE",
"42 508 LINE",
"42 420 LINE",
"304 420 LINE"
);
},
{
closed = 1;
nodes = (
"366 256 OFFCURVE",
"304 272 OFFCURVE",
"304 420 CURVE",
"42 420 LINE",
"42 80 OFFCURVE",
"272 0 OFFCURVE",
"472 0 CURVE",
"492 256 LINE"
);
},
{
closed = 1;
nodes = (
"472 0 LINE",
"692 0 OFFCURVE",
"772 170 OFFCURVE",
"772 420 CURVE",
"622 420 LINE",
"622 314 OFFCURVE",
"588 256 OFFCURVE",
"492 256 CURVE"
);
},
{
closed = 1;
nodes = (
"42 580 LINE",
"42 508 LINE",
"304 508 LINE",
"304 580 LINE"
);
},
{
closed = 1;
nodes = (
"42 580 LINE",
"42 508 LINE",
"304 508 LINE",
"304 580 LINE"
);
},
{
closed = 1;
nodes = (
"42 580 LINE",
"42 508 LINE",
"304 508 LINE",
"304 580 LINE"
);
},
{
closed = 1;
nodes = (
"42 580 LINE",
"42 508 LINE",
"304 508 LINE",
"304 580 LINE"
);
},
{
closed = 1;
nodes = (
"472 1000 LINE",
"272 1000 OFFCURVE",
"42 920 OFFCURVE",
"42 580 CURVE",
"304 580 LINE",
"304 728 OFFCURVE",
"366 744 OFFCURVE",
"492 744 CURVE"
);
},
{
closed = 1;
nodes = (
"588 744 OFFCURVE",
"622 686 OFFCURVE",
"622 580 CURVE",
"772 580 LINE",
"772 830 OFFCURVE",
"692 1000 OFFCURVE",
"472 1000 CURVE",
"492 744 LINE"
);
}
);
width = 1200;
}
);
unicode = 0064;
},
{
glyphname = eth;
lastChange = "2021-04-13 11:22:22 +0000";
layers = (
{
layerId = "A833981A-68C5-4528-81CD-92C717829696";
paths = (
{
closed = 1;
nodes = (
"462 233 OFFCURVE",
"548 700 OFFCURVE",
"173 700 CURVE",
"121 605 LINE",
"293 600 OFFCURVE",
"332 462 OFFCURVE",
"332 290 CURVE SMOOTH",
"332 265 OFFCURVE",
"332 236 OFFCURVE",
"332 210 CURVE SMOOTH",
"332 136 OFFCURVE",
"326 60 OFFCURVE",
"327 0 CURVE",
"462 0 LINE"
);
},
{
closed = 1;
nodes = (
"173 254 LINE",
"42 254 LINE",
"42 210 LINE",
"173 210 LINE"
);
},
{
closed = 1;
nodes = (
"204 128 OFFCURVE",
"173 136 OFFCURVE",
"173 210 CURVE",
"42 210 LINE",
"42 40 OFFCURVE",
"157 0 OFFCURVE",
"257 0 CURVE",
"267 128 LINE"
);
},
{
closed = 1;
nodes = (
"257 0 LINE",
"367 0 OFFCURVE",
"407 85 OFFCURVE",
"407 210 CURVE",
"332 210 LINE",
"332 157 OFFCURVE",
"315 128 OFFCURVE",
"267 128 CURVE"
);
},
{
closed = 0;
nodes = (
"332 28 LINE"
);
},
{
closed = 1;
nodes = (
"173 254 LINE",
"42 254 LINE",
"42 210 LINE",
"173 210 LINE"
);
},
{
closed = 1;
nodes = (
"204 128 OFFCURVE",
"173 136 OFFCURVE",
"173 210 CURVE",
"42 210 LINE",
"42 40 OFFCURVE",
"157 0 OFFCURVE",
"257 0 CURVE",
"267 128 LINE"
);
},
{
closed = 1;
nodes = (
"257 0 LINE",
"367 0 OFFCURVE",
"407 85 OFFCURVE",
"407 210 CURVE",
"332 210 LINE",
"332 157 OFFCURVE",
"315 128 OFFCURVE",
"267 128 CURVE"
);
},
{
closed = 0;
nodes = (
"332 28 LINE"
);
},
{
closed = 1;
nodes = (
"173 254 LINE",
"42 254 LINE",
"42 210 LINE",
"173 210 LINE"
);
},
{
closed = 1;
nodes = (
"204 128 OFFCURVE",
"173 136 OFFCURVE",
"173 210 CURVE",
"42 210 LINE",
"42 40 OFFCURVE",
"157 0 OFFCURVE",
"257 0 CURVE",
"267 128 LINE"
);
},
{
closed = 1;
nodes = (
"257 0 LINE",
"367 0 OFFCURVE",
"407 85 OFFCURVE",
"407 210 CURVE",
"332 210 LINE",
"332 157 OFFCURVE",
"315 128 OFFCURVE",
"267 128 CURVE"
);
},
{
closed = 0;
nodes = (
"332 28 LINE"
);
},
{
closed = 1;
nodes = (
"173 254 LINE",
"42 254 LINE",
"42 210 LINE",
"173 210 LINE"
);
},
{
closed = 1;
nodes = (
"204 128 OFFCURVE",
"173 136 OFFCURVE",
"173 210 CURVE",
"42 210 LINE",
"42 40 OFFCURVE",
"157 0 OFFCURVE",
"257 0 CURVE",
"267 128 LINE"
);
},
{
closed = 1;
nodes = (
"257 0 LINE",
"367 0 OFFCURVE",
"407 85 OFFCURVE",
"407 210 CURVE",
"332 210 LINE",
"332 157 OFFCURVE",
"315 128 OFFCURVE",
"267 128 CURVE"
);
},
{
closed = 1;
nodes = (
"42 290 LINE",
"42 254 LINE",
"173 254 LINE",
"173 290 LINE"
);
},
{
closed = 1;
nodes = (
"257 500 LINE",
"157 500 OFFCURVE",
"42 460 OFFCURVE",
"42 290 CURVE",
"173 290 LINE",
"173 364 OFFCURVE",
"204 372 OFFCURVE",
"267 372 CURVE"
);
},
{
closed = 1;
nodes = (
"315 372 OFFCURVE",
"332 343 OFFCURVE",
"332 290 CURVE",
"407 290 LINE",
"407 415 OFFCURVE",
"367 500 OFFCURVE",
"257 500 CURVE",
"267 372 LINE"
);
},
{
closed = 1;
nodes = (
"42 290 LINE",
"42 254 LINE",
"173 254 LINE",
"173 290 LINE"
);
},
{
closed = 1;
nodes = (
"257 500 LINE",
"157 500 OFFCURVE",
"42 460 OFFCURVE",
"42 290 CURVE",
"173 290 LINE",
"173 364 OFFCURVE",
"204 372 OFFCURVE",
"267 372 CURVE"
);
},
{
closed = 1;
nodes = (
"315 372 OFFCURVE",
"332 343 OFFCURVE",
"332 290 CURVE",
"407 290 LINE",
"407 415 OFFCURVE",
"367 500 OFFCURVE",
"257 500 CURVE",
"267 372 LINE"
);
},
{
closed = 1;
nodes = (
"42 290 LINE",
"42 254 LINE",
"173 254 LINE",
"173 290 LINE"
);
},
{
closed = 1;
nodes = (
"257 500 LINE",
"157 500 OFFCURVE",
"42 460 OFFCURVE",
"42 290 CURVE",
"173 290 LINE",
"173 364 OFFCURVE",
"204 372 OFFCURVE",
"267 372 CURVE"
);
},
{
closed = 1;
nodes = (
"315 372 OFFCURVE",
"332 343 OFFCURVE",
"332 290 CURVE",
"407 290 LINE",
"407 415 OFFCURVE",
"367 500 OFFCURVE",
"257 500 CURVE",
"267 372 LINE"
);
},
{
closed = 1;
nodes = (
"42 290 LINE",
"42 254 LINE",
"173 254 LINE",
"173 290 LINE"
);
},
{
closed = 1;
nodes = (
"257 500 LINE",
"157 500 OFFCURVE",
"42 460 OFFCURVE",
"42 290 CURVE",
"173 290 LINE",
"173 364 OFFCURVE",
"204 372 OFFCURVE",
"267 372 CURVE"
);
},
{
closed = 1;
nodes = (
"315 372 OFFCURVE",
"332 343 OFFCURVE",
"332 290 CURVE",
"407 290 LINE",
"407 415 OFFCURVE",
"367 500 OFFCURVE",
"257 500 CURVE",
"267 372 LINE"
);
},
{
closed = 1;
nodes = (
"239 518 LINE",
"420 679 LINE",
"308 716 LINE",
"127 554 LINE"
);
}
);
width = 513;
}
);
unicode = 00F0;
},
{
glyphname = e;
lastChange = "2021-04-19 18:18:28 +0000";
layers = (
{
layerId = "A833981A-68C5-4528-81CD-92C717829696";
paths = (
{
closed = 1;
nodes = (
"300 420 LINE",
"300 580 LINE",
"42 580 LINE",
"42 420 LINE"
);
},
{
closed = 0;
nodes = (
"300 56 LINE"
);
},
{
closed = 0;
nodes = (
"300 56 LINE"
);
},
{
closed = 0;
nodes = (
"300 56 LINE"
);
},
{
closed = 1;
nodes = (
"450 0 LINE",
"694 0 OFFCURVE",
"774 48 OFFCURVE",
"832 170 CURVE",
"666 314 LINE",
"614 238 OFFCURVE",
"496 256 OFFCURVE",
"430 256 CURVE"
);
},
{
closed = 1;
nodes = (
"334 256 OFFCURVE",
"300 314 OFFCURVE",
"300 420 CURVE",
"42 420 LINE",
"42 170 OFFCURVE",
"230 0 OFFCURVE",
"450 0 CURVE",
"430 256 LINE"
);
},
{
closed = 1;
nodes = (
"556 744 OFFCURVE",
"618 708 OFFCURVE",
"618 600 CURVE",
"880 600 LINE",
"880 868 OFFCURVE",
"650 1000 OFFCURVE",
"450 1000 CURVE",
"430 744 LINE"
);
},
{
closed = 1;
nodes = (
"450 1000 LINE",
"230 1000 OFFCURVE",
"42 830 OFFCURVE",
"42 580 CURVE",
"300 580 LINE",
"300 686 OFFCURVE",
"334 744 OFFCURVE",
"430 744 CURVE"
);
},
{
closed = 1;
nodes = (
"272 438 LINE",
"880 440 LINE",
"880 600 LINE",
"272 600 LINE"
);
}
);
width = 1200;
}
);
unicode = 0065;
},
{
glyphname = f;
lastChange = "2021-04-13 19:00:57 +0000";
layers = (
{
layerId = "A833981A-68C5-4528-81CD-92C717829696";
paths = (
{
closed = 1;
nodes = (
"239 0 LINE",
"239 676 LINE",
"109 485 LINE",
"109 15 LINE"
);
},
{
closed = 1;
nodes = (
"303 500 LINE",
"42 501 LINE",
"42 372 LINE",
"303 371 LINE"
);
},
{
closed = 1;
nodes = (
"239 538 OFFCURVE",
"276 569 OFFCURVE",
"350 569 CURVE",
"350 700 LINE",
"180 700 OFFCURVE",
"109 585 OFFCURVE",
"109 485 CURVE",
"239 475 LINE"
);
}
);
width = 392;
}
);
unicode = 0066;
},
{
glyphname = g;
lastChange = "2021-04-19 18:18:37 +0000";
layers = (
{
layerId = "A833981A-68C5-4528-81CD-92C717829696";
paths = (
{
closed = 1;
nodes = (
"752 964 LINE",
"752 -76 LINE",
"1012 -76 LINE",
"1012 808 LINE"
);
},
{
closed = 1;
nodes = (
"718 744 OFFCURVE",
"752 686 OFFCURVE",
"752 580 CURVE",
"902 580 LINE",
"902 830 OFFCURVE",
"822 1000 OFFCURVE",
"602 1000 CURVE",
"622 744 LINE"
);
},
{
closed = 1;
nodes = (
"172 580 LINE",
"172 492 LINE",
"434 492 LINE",
"434 580 LINE"
);
},
{
closed = 1;
nodes = (
"602 1000 LINE",
"402 1000 OFFCURVE",
"172 920 OFFCURVE",
"172 580 CURVE",
"434 580 LINE",
"434 728 OFFCURVE",
"496 744 OFFCURVE",
"622 744 CURVE"
);
},
{
closed = 0;
nodes = (
"752 56 LINE"
);
},
{
closed = 1;
nodes = (
"434 492 LINE",
"172 492 LINE"
);
},
{
closed = 1;
nodes = (
"434 492 LINE",
"172 492 LINE"
);
},
{
closed = 0;
nodes = (
"752 56 LINE"
);
},
{
closed = 1;
nodes = (
"434 492 LINE",
"172 492 LINE"
);
},
{
closed = 1;
nodes = (
"496 256 OFFCURVE",
"434 272 OFFCURVE",
"434 420 CURVE",
"172 420 LINE",
"172 80 OFFCURVE",
"402 0 OFFCURVE",
"602 0 CURVE",
"622 256 LINE"
);
},
{
closed = 1;
nodes = (
"602 0 LINE",
"822 0 OFFCURVE",
"902 170 OFFCURVE",
"902 420 CURVE",
"752 420 LINE",
"752 314 OFFCURVE",
"718 256 OFFCURVE",
"622 256 CURVE"
);
},
{
closed = 1;
nodes = (
"434 492 LINE",
"172 492 LINE",
"172 420 LINE",
"434 420 LINE"
);
},
{
closed = 0;
nodes = (
"602 0 LINE"
);
},
{
closed = 1;
nodes = (
"534 -200 OFFCURVE",
"438 -150 OFFCURVE",
"438 -44 CURVE",
"218 -44 LINE",
"218 -334 OFFCURVE",
"490 -400 OFFCURVE",
"592 -400 CURVE",
"592 -200 LINE"
);
},
{
closed = 1;
nodes = (
"592 -400 LINE",
"946 -400 OFFCURVE",
"1012 -204 OFFCURVE",
"1012 -76 CURVE",
"752 -76 LINE",
"752 -76 OFFCURVE",
"756 -200 OFFCURVE",
"592 -200 CURVE"
);
},
{
closed = 1;
nodes = (
"622 1000 LINE",
"1012 808 LINE",
"1012 864 OFFCURVE",
"942 1000 OFFCURVE",
"714 1000 CURVE"
);
}
);
width = 1200;
}
);
unicode = 0067;
},
{
glyphname = h;
lastChange = "2021-04-19 18:18:43 +0000";
layers = (
{
layerId = "A833981A-68C5-4528-81CD-92C717829696";
paths = (
{
closed = 1;
nodes = (
"42 0 LINE",
"302 0 LINE",
"302 1400 LINE",
"42 1400 LINE"
);
},
{
closed = 1;
nodes = (
"622 0 LINE",
"882 0 LINE",
"882 580 LINE",
"620 580 LINE"
);
},
{
closed = 1;
nodes = (
"558 744 OFFCURVE",
"620 728 OFFCURVE",
"620 580 CURVE",
"882 580 LINE",
"882 920 OFFCURVE",
"652 1000 OFFCURVE",
"452 1000 CURVE",
"432 744 LINE"
);
},
{
closed = 1;
nodes = (
"452 1000 LINE",
"232 1000 OFFCURVE",
"152 830 OFFCURVE",
"152 580 CURVE",
"302 580 LINE",
"302 686 OFFCURVE",
"336 744 OFFCURVE",
"432 744 CURVE"
);
}
);
width = 1200;
}
);
unicode = 0068;
},
{
glyphname = i;
lastChange = "2021-04-19 18:46:55 +0000";
layers = (
{
layerId = "A833981A-68C5-4528-81CD-92C717829696";
paths = (
{
closed = 1;
nodes = (
"42 0 LINE",
"302 0 LINE",
"302 1000 LINE",
"42 1000 LINE"
);
},
{
closed = 1;
nodes = (
"242 1070 OFFCURVE",
"302 1128 OFFCURVE",
"302 1200 CURVE SMOOTH",
"302 1272 OFFCURVE",
"242 1330 OFFCURVE",
"172 1330 CURVE SMOOTH",
"100 1330 OFFCURVE",
"42 1272 OFFCURVE",
"42 1200 CURVE SMOOTH",
"42 1128 OFFCURVE",
"100 1070 OFFCURVE",
"172 1070 CURVE SMOOTH"
);
}
);
width = 500;
}
);
unicode = 0069;
},
{
glyphname = idotless;
lastChange = "2021-04-19 18:47:05 +0000";
layers = (
{
layerId = "A833981A-68C5-4528-81CD-92C717829696";
paths = (
{
closed = 1;
nodes = (
"42 0 LINE",
"302 0 LINE",
"302 1000 LINE",
"42 1000 LINE"
);
}
);
width = 500;
}
);
unicode = 0131;
},
{
glyphname = j;
lastChange = "2021-04-19 18:44:16 +0000";
layers = (
{
layerId = "A833981A-68C5-4528-81CD-92C717829696";
paths = (
{
closed = 1;
nodes = (
"485 1000 LINE",
"485 -352 LINE",
"745 30 LINE",
"745 970 LINE"
);
},
{
closed = 0;
nodes = (
"315 -400 LINE",
"315 -138 LINE"
);
},
{
closed = 1;
nodes = (
"485 -76 OFFCURVE",
"463 -138 OFFCURVE",
"315 -138 CURVE",
"315 -400 LINE",
"655 -400 OFFCURVE",
"745 -170 OFFCURVE",
"745 30 CURVE",
"485 50 LINE"
);
},
{
closed = 1;
nodes = (
"685 1070 OFFCURVE",
"745 1128 OFFCURVE",
"745 1200 CURVE SMOOTH",
"745 1272 OFFCURVE",
"685 1330 OFFCURVE",
"615 1330 CURVE SMOOTH",
"543 1330 OFFCURVE",
"485 1272 OFFCURVE",
"485 1200 CURVE SMOOTH",
"485 1128 OFFCURVE",
"543 1070 OFFCURVE",
"615 1070 CURVE SMOOTH"
);
}
);
width = 1200;
}
);
unicode = 006A;
},
{
glyphname = k;
lastChange = "2021-04-19 18:51:56 +0000";
layers = (
{
layerId = "A833981A-68C5-4528-81CD-92C717829696";
paths = (
{
closed = 1;
nodes = (
"42 0 LINE",
"302 0 LINE",
"302 1400 LINE",
"42 1400 LINE"
);
},
{
closed = 1;
nodes = (
"882 1000 LINE",
"502 1000 LINE",
"302 806 LINE",
"302 420 LINE"
);
},
{
closed = 1;
nodes = (
"302 420 LINE",
"594 0 LINE",
"882 0 LINE",
"472 712 LINE"
);
}
);
width = 1200;
}
);
unicode = 006B;
},
{
glyphname = l;
lastChange = "2021-04-19 18:47:26 +0000";
layers = (
{
layerId = "A833981A-68C5-4528-81CD-92C717829696";
paths = (
{
closed = 1;
nodes = (
"54 430 LINE",
"314 48 LINE",
"314 1400 LINE",
"54 1370 LINE"
);
},
{
closed = 0;
nodes = (
"484 0 LINE",
"484 262 LINE"
);
},
{
closed = 1;
nodes = (
"54 430 LINE",
"54 230 OFFCURVE",
"144 0 OFFCURVE",
"484 0 CURVE",
"484 262 LINE",
"336 262 OFFCURVE",
"314 324 OFFCURVE",
"314 450 CURVE"
);
}
);
width = 500;
}
);
unicode = 006C;
},
{
glyphname = m;
lastChange = "2021-04-19 18:18:54 +0000";
layers = (
{
layerId = "A833981A-68C5-4528-81CD-92C717829696";
paths = (
{
closed = 1;
nodes = (
"42 0 LINE",
"302 0 LINE",
"302 944 LINE",
"280 1000 LINE",
"42 1000 LINE"
);
},
{
closed = 1;
nodes = (
"622 0 LINE",
"882 0 LINE",
"882 580 LINE",
"620 580 LINE"
);
},
{
closed = 1;
nodes = (
"558 744 OFFCURVE",
"620 728 OFFCURVE",
"620 580 CURVE",
"882 580 LINE",
"882 1000 OFFCURVE",
"652 1000 OFFCURVE",
"452 1000 CURVE",
"432 744 LINE"
);
},
{
closed = 1;
nodes = (
"452 1000 LINE",
"232 1000 OFFCURVE",
"152 830 OFFCURVE",
"152 580 CURVE",
"302 580 LINE",
"302 686 OFFCURVE",
"336 744 OFFCURVE",
"432 744 CURVE"
);
},
{
closed = 0;
nodes = (
"882 944 LINE"
);
},
{
closed = 1;
nodes = (
"1202 0 LINE",
"1462 0 LINE",
"1462 580 LINE",
"1200 580 LINE"
);
},
{
closed = 1;
nodes = (
"1138 744 OFFCURVE",
"1200 728 OFFCURVE",
"1200 580 CURVE",
"1462 580 LINE",
"1462 920 OFFCURVE",
"1232 1000 OFFCURVE",
"1032 1000 CURVE",
"1012 744 LINE"
);
},
{
closed = 1;
nodes = (
"1032 1000 LINE",
"812 1000 OFFCURVE",
"732 830 OFFCURVE",
"732 580 CURVE",
"882 580 LINE",
"882 686 OFFCURVE",
"916 744 OFFCURVE",
"1012 744 CURVE"
);
}
);
width = 1600;
}
);
unicode = 006D;
},
{
glyphname = n;
lastChange = "2021-04-19 18:18:58 +0000";
layers = (
{
layerId = "A833981A-68C5-4528-81CD-92C717829696";
paths = (
{
closed = 1;
nodes = (
"42 0 LINE",
"302 0 LINE",
"302 944 LINE",
"280 1000 LINE",
"42 1000 LINE"
);
},
{
closed = 1;
nodes = (
"622 0 LINE",
"882 0 LINE",
"882 580 LINE",
"620 580 LINE"
);
},
{
closed = 1;
nodes = (
"558 744 OFFCURVE",
"620 728 OFFCURVE",
"620 580 CURVE",
"882 580 LINE",
"882 920 OFFCURVE",
"652 1000 OFFCURVE",
"452 1000 CURVE",
"432 744 LINE"
);
},
{
closed = 1;
nodes = (
"452 1000 LINE",
"232 1000 OFFCURVE",
"152 830 OFFCURVE",
"152 580 CURVE",
"302 580 LINE",
"302 686 OFFCURVE",
"336 744 OFFCURVE",
"432 744 CURVE"
);
}
);
width = 1200;
}
);
unicode = 006E;
},
{
glyphname = o;
lastChange = "2021-04-19 18:17:34 +0000";
layers = (
{
layerId = "A833981A-68C5-4528-81CD-92C717829696";
paths = (
{
closed = 1;
nodes = (
"902 420 LINE",
"902 508 LINE",
"640 508 LINE",
"640 420 LINE"
);
},
{
closed = 1;
nodes = (
"472 0 LINE",
"672 0 OFFCURVE",
"902 80 OFFCURVE",
"902 420 CURVE",
"640 420 LINE",
"640 272 OFFCURVE",
"578 256 OFFCURVE",
"452 256 CURVE"
);
},
{
closed = 1;
nodes = (
"472 0 LINE",
"452 256 LINE"
);
},
{
closed = 1;
nodes = (
"640 508 LINE",
"902 508 LINE"
);
},
{
closed = 1;
nodes = (
"640 508 LINE",
"902 508 LINE",
"902 580 LINE",
"640 580 LINE"
);
},
{
closed = 1;
nodes = (
"578 744 OFFCURVE",
"640 728 OFFCURVE",
"640 580 CURVE",
"902 580 LINE",
"902 920 OFFCURVE",
"672 1000 OFFCURVE",
"472 1000 CURVE",
"452 744 LINE"
);
},
{
closed = 1;
nodes = (
"472 1000 LINE",
"452 744 LINE"
);
},
{
closed = 1;
nodes = (
"304 508 LINE",
"42 508 LINE",
"42 420 LINE",
"304 420 LINE"
);
},
{
closed = 1;
nodes = (
"366 256 OFFCURVE",
"304 272 OFFCURVE",
"304 420 CURVE",
"42 420 LINE",
"42 80 OFFCURVE",
"272 0 OFFCURVE",
"472 0 CURVE",
"492 256 LINE"
);
},
{
closed = 1;
nodes = (
"472 0 LINE",
"492 256 LINE"
);
},
{
closed = 1;
nodes = (
"42 508 LINE",
"304 508 LINE"
);
},
{
closed = 1;
nodes = (
"42 508 LINE",
"304 508 LINE"
);
},
{
closed = 1;
nodes = (
"42 508 LINE",
"304 508 LINE"
);
},
{
closed = 1;
nodes = (
"472 1000 LINE",
"492 744 LINE"
);
},
{
closed = 1;
nodes = (
"42 580 LINE",
"42 508 LINE",
"304 508 LINE",
"304 580 LINE"
);
},
{
closed = 1;
nodes = (
"472 1000 LINE",
"272 1000 OFFCURVE",
"42 920 OFFCURVE",
"42 580 CURVE",
"304 580 LINE",
"304 728 OFFCURVE",
"366 744 OFFCURVE",
"492 744 CURVE"
);
}
);
width = 1200;
}
);
unicode = 006F;
},
{
glyphname = odieresis;
lastChange = "2021-04-19 18:46:03 +0000";
layers = (
{
components = (
{
name = dieresiscomb;
}
);
layerId = "A833981A-68C5-4528-81CD-92C717829696";
paths = (
{
closed = 1;
nodes = (
"902 420 LINE",
"902 508 LINE",
"640 508 LINE",
"640 420 LINE"
);
},
{
closed = 1;
nodes = (
"472 0 LINE",
"672 0 OFFCURVE",
"902 80 OFFCURVE",
"902 420 CURVE",
"640 420 LINE",
"640 272 OFFCURVE",
"578 256 OFFCURVE",
"452 256 CURVE"
);
},
{
closed = 1;
nodes = (
"472 0 LINE",
"452 256 LINE"
);
},
{
closed = 1;
nodes = (
"640 508 LINE",
"902 508 LINE"
);
},
{
closed = 1;
nodes = (
"640 508 LINE",
"902 508 LINE",
"902 580 LINE",
"640 580 LINE"
);
},
{
closed = 1;
nodes = (
"578 744 OFFCURVE",
"640 728 OFFCURVE",
"640 580 CURVE",
"902 580 LINE",
"902 920 OFFCURVE",
"672 1000 OFFCURVE",
"472 1000 CURVE",
"452 744 LINE"
);
},
{
closed = 1;
nodes = (
"472 1000 LINE",
"452 744 LINE"
);
},
{
closed = 1;
nodes = (
"304 508 LINE",
"42 508 LINE",
"42 420 LINE",
"304 420 LINE"
);
},
{
closed = 1;
nodes = (
"366 256 OFFCURVE",
"304 272 OFFCURVE",
"304 420 CURVE",
"42 420 LINE",
"42 80 OFFCURVE",
"272 0 OFFCURVE",
"472 0 CURVE",
"492 256 LINE"
);
},
{
closed = 1;
nodes = (
"472 0 LINE",
"492 256 LINE"
);
},
{
closed = 1;
nodes = (
"42 508 LINE",
"304 508 LINE"
);
},
{
closed = 1;
nodes = (
"42 508 LINE",
"304 508 LINE"
);
},
{
closed = 1;
nodes = (
"42 508 LINE",
"304 508 LINE"
);
},
{
closed = 1;
nodes = (
"472 1000 LINE",
"492 744 LINE"
);
},
{
closed = 1;
nodes = (
"42 580 LINE",
"42 508 LINE",
"304 508 LINE",
"304 580 LINE"
);
},
{
closed = 1;
nodes = (
"472 1000 LINE",
"272 1000 OFFCURVE",
"42 920 OFFCURVE",
"42 580 CURVE",
"304 580 LINE",
"304 728 OFFCURVE",
"366 744 OFFCURVE",
"492 744 CURVE"
);
}
);
width = 1200;
}
);
unicode = 00F6;
},
{
glyphname = oe;
lastChange = "2021-04-13 11:22:22 +0000";
layers = (
{
layerId = "A833981A-68C5-4528-81CD-92C717829696";
paths = (
{
closed = 1;
nodes = (
"472 210 LINE",
"472 254 LINE",
"341 254 LINE",
"341 210 LINE"
);
},
{
closed = 1;
nodes = (
"257 0 LINE",
"357 0 OFFCURVE",
"472 40 OFFCURVE",
"472 210 CURVE",
"341 210 LINE",
"341 136 OFFCURVE",
"310 128 OFFCURVE",
"247 128 CURVE"
);
},
{
closed = 1;
nodes = (
"257 0 LINE",
"247 128 LINE"
);
},
{
closed = 1;
nodes = (
"341 254 LINE",
"472 254 LINE"
);
},
{
closed = 1;
nodes = (
"341 254 LINE",
"472 254 LINE",
"472 290 LINE",
"341 290 LINE"
);
},
{
closed = 1;
nodes = (
"310 372 OFFCURVE",
"341 364 OFFCURVE",
"341 290 CURVE",
"472 290 LINE",
"472 460 OFFCURVE",
"357 500 OFFCURVE",
"257 500 CURVE",
"247 372 LINE"
);
},
{
closed = 1;
nodes = (
"257 500 LINE",
"247 372 LINE"
);
},
{
closed = 1;
nodes = (
"173 254 LINE",
"42 254 LINE",
"42 210 LINE",
"173 210 LINE"
);
},
{
closed = 1;
nodes = (
"204 128 OFFCURVE",
"173 136 OFFCURVE",
"173 210 CURVE",
"42 210 LINE",
"42 40 OFFCURVE",
"157 0 OFFCURVE",
"257 0 CURVE",
"267 128 LINE"
);
},
{
closed = 1;
nodes = (
"257 0 LINE",
"267 128 LINE"
);
},
{
closed = 1;
nodes = (
"42 254 LINE",
"173 254 LINE"
);
},
{
closed = 1;
nodes = (
"42 254 LINE",
"173 254 LINE"
);
},
{
closed = 1;
nodes = (
"42 254 LINE",
"173 254 LINE"
);
},
{
closed = 1;
nodes = (
"257 500 LINE",
"267 372 LINE"
);
},
{
closed = 1;
nodes = (
"42 290 LINE",
"42 254 LINE",
"173 254 LINE",
"173 290 LINE"
);
},
{
closed = 1;
nodes = (
"257 500 LINE",
"157 500 OFFCURVE",
"42 460 OFFCURVE",
"42 290 CURVE",
"173 290 LINE",
"173 364 OFFCURVE",
"204 372 OFFCURVE",
"267 372 CURVE"
);
},
{
closed = 1;
nodes = (
"471 210 LINE",
"471 290 LINE",
"342 290 LINE",
"342 210 LINE"
);
},
{
closed = 0;
nodes = (
"471 28 LINE"
);
},
{
closed = 0;
nodes = (
"471 28 LINE"
);
},
{
closed = 0;
nodes = (
"471 28 LINE"
);
},
{
closed = 1;
nodes = (
"546 0 LINE",
"668 0 OFFCURVE",
"708 24 OFFCURVE",
"737 85 CURVE",
"654 157 LINE",
"628 119 OFFCURVE",
"569 128 OFFCURVE",
"536 128 CURVE"
);
},
{
closed = 1;
nodes = (
"488 128 OFFCURVE",
"471 157 OFFCURVE",
"471 210 CURVE",
"342 210 LINE",
"342 85 OFFCURVE",
"436 0 OFFCURVE",
"546 0 CURVE",
"536 128 LINE"
);
},
{
closed = 1;
nodes = (
"599 372 OFFCURVE",
"630 354 OFFCURVE",
"630 300 CURVE",
"761 300 LINE",
"761 434 OFFCURVE",
"646 500 OFFCURVE",
"546 500 CURVE",
"536 372 LINE"
);
},
{
closed = 1;
nodes = (
"546 500 LINE",
"436 500 OFFCURVE",
"342 415 OFFCURVE",
"342 290 CURVE",
"471 290 LINE",
"471 343 OFFCURVE",
"488 372 OFFCURVE",
"536 372 CURVE"
);
},
{
closed = 1;
nodes = (
"457 219 LINE",
"761 220 LINE",
"761 300 LINE",
"457 300 LINE"
);
}
);
width = 803;
}
);
unicode = 0153;
},
{
glyphname = p;
lastChange = "2021-04-19 18:17:25 +0000";
layers = (
{
layerId = "A833981A-68C5-4528-81CD-92C717829696";
paths = (
{
closed = 1;
nodes = (
"178 -400 LINE",
"438 -400 LINE",
"438 944 LINE",
"416 1000 LINE",
"178 1000 LINE"
);
},
{
closed = 0;
nodes = (
"438 944 LINE",
"416 1000 LINE"
);
},
{
closed = 0;
nodes = (
"438 944 LINE"
);
},
{
closed = 0;
nodes = (
"438 944 LINE",
"416 1000 LINE"
);
},
{
closed = 1;
nodes = (
"1018 580 LINE",
"756 580 LINE"
);
},
{
closed = 1;
nodes = (
"694 744 OFFCURVE",
"756 728 OFFCURVE",
"756 580 CURVE",
"1018 580 LINE",
"1018 920 OFFCURVE",
"788 1000 OFFCURVE",
"588 1000 CURVE",
"568 744 LINE"
);
},
{
closed = 1;
nodes = (
"588 1000 LINE",
"368 1000 OFFCURVE",
"288 830 OFFCURVE",
"288 580 CURVE",
"438 580 LINE",
"438 686 OFFCURVE",
"472 744 OFFCURVE",
"568 744 CURVE"
);
},
{
closed = 1;
nodes = (
"472 256 OFFCURVE",
"438 314 OFFCURVE",
"438 420 CURVE",
"288 420 LINE",
"288 170 OFFCURVE",
"368 0 OFFCURVE",
"588 0 CURVE",
"568 256 LINE"
);
},
{
closed = 1;
nodes = (
"1018 420 LINE",
"756 420 LINE"
);
},
{
closed = 1;
nodes = (
"588 0 LINE",
"788 0 OFFCURVE",
"1018 80 OFFCURVE",
"1018 420 CURVE",
"756 420 LINE",
"756 272 OFFCURVE",
"694 256 OFFCURVE",
"568 256 CURVE"
);
},
{
closed = 1;
nodes = (
"472 256 OFFCURVE",
"438 314 OFFCURVE",
"438 420 CURVE",
"288 420 LINE",
"288 170 OFFCURVE",
"368 0 OFFCURVE",
"588 0 CURVE",
"568 256 LINE"
);
},
{
closed = 1;
nodes = (
"756 420 LINE",
"1018 420 LINE",
"1018 580 LINE",
"756 580 LINE"
);
}
);
width = 1200;
}
);
unicode = 0070;
},
{
glyphname = thorn;
lastChange = "2021-04-19 18:17:16 +0000";
layers = (
{
layerId = "A833981A-68C5-4528-81CD-92C717829696";
paths = (
{
closed = 1;
nodes = (
"123 -400 LINE",
"383 -400 LINE",
"383 1400 LINE",
"123 1400 LINE"
);
},
{
closed = 1;
nodes = (
"963 580 LINE",
"701 580 LINE"
);
},
{
closed = 1;
nodes = (
"639 744 OFFCURVE",
"701 728 OFFCURVE",
"701 580 CURVE",
"963 580 LINE",
"963 920 OFFCURVE",
"733 1000 OFFCURVE",
"533 1000 CURVE",
"513 744 LINE"
);
},
{
closed = 1;
nodes = (
"533 1000 LINE",
"313 1000 OFFCURVE",
"233 830 OFFCURVE",
"233 580 CURVE",
"383 580 LINE",
"383 686 OFFCURVE",
"417 744 OFFCURVE",
"513 744 CURVE"
);
},
{
closed = 1;
nodes = (
"417 256 OFFCURVE",
"383 314 OFFCURVE",
"383 420 CURVE",
"233 420 LINE",
"233 170 OFFCURVE",
"313 0 OFFCURVE",
"533 0 CURVE",
"513 256 LINE"
);
},
{
closed = 1;
nodes = (
"963 420 LINE",
"701 420 LINE"
);
},
{
closed = 1;
nodes = (
"533 0 LINE",
"733 0 OFFCURVE",
"963 80 OFFCURVE",
"963 420 CURVE",
"701 420 LINE",
"701 272 OFFCURVE",
"639 256 OFFCURVE",
"513 256 CURVE"
);
},
{
closed = 1;
nodes = (
"417 256 OFFCURVE",
"383 314 OFFCURVE",
"383 420 CURVE",
"233 420 LINE",
"233 170 OFFCURVE",
"313 0 OFFCURVE",
"533 0 CURVE",
"513 256 LINE"
);
},
{
closed = 1;
nodes = (
"701 420 LINE",
"963 420 LINE",
"963 580 LINE",
"701 580 LINE"
);
}
);
width = 1200;
}
);
unicode = 00FE;
},
{
glyphname = q;
lastChange = "2021-04-19 18:45:19 +0000";
layers = (
{
layerId = "A833981A-68C5-4528-81CD-92C717829696";
paths = (
{
closed = 1;
nodes = (
"743 1000 LINE",
"721 944 LINE",
"721 -400 LINE",
"981 -400 LINE",
"981 1000 LINE"
);
},
{
closed = 1;
nodes = (
"141 580 LINE",
"141 492 LINE",
"403 492 LINE",
"403 580 LINE"
);
},
{
closed = 1;
nodes = (
"571 1000 LINE",
"371 1000 OFFCURVE",
"141 920 OFFCURVE",
"141 580 CURVE",
"403 580 LINE",
"403 728 OFFCURVE",
"465 744 OFFCURVE",
"591 744 CURVE"
);
},
{
closed = 1;
nodes = (
"687 744 OFFCURVE",
"721 686 OFFCURVE",
"721 580 CURVE",
"871 580 LINE",
"871 830 OFFCURVE",
"791 1000 OFFCURVE",
"571 1000 CURVE",
"591 744 LINE"
);
},
{
closed = 0;
nodes = (
"721 944 LINE",
"743 1000 LINE"
);
},
{
closed = 1;
nodes = (
"141 580 LINE",
"141 492 LINE",
"403 492 LINE",
"403 580 LINE"
);
},
{
closed = 1;
nodes = (
"571 1000 LINE",
"371 1000 OFFCURVE",
"141 920 OFFCURVE",
"141 580 CURVE",
"403 580 LINE",
"403 728 OFFCURVE",
"465 744 OFFCURVE",
"591 744 CURVE"
);
},
{
closed = 1;
nodes = (
"687 744 OFFCURVE",
"721 686 OFFCURVE",
"721 580 CURVE",
"871 580 LINE",
"871 830 OFFCURVE",
"791 1000 OFFCURVE",
"571 1000 CURVE",
"591 744 LINE"
);
},
{
closed = 0;
nodes = (
"721 944 LINE"
);
},
{
closed = 1;
nodes = (
"141 580 LINE",
"141 492 LINE",
"403 492 LINE",
"403 580 LINE"
);
},
{
closed = 1;
nodes = (
"571 1000 LINE",
"371 1000 OFFCURVE",
"141 920 OFFCURVE",
"141 580 CURVE",
"403 580 LINE",
"403 728 OFFCURVE",
"465 744 OFFCURVE",
"591 744 CURVE"
);
},
{
closed = 1;
nodes = (
"687 744 OFFCURVE",
"721 686 OFFCURVE",
"721 580 CURVE",
"871 580 LINE",
"871 830 OFFCURVE",
"791 1000 OFFCURVE",
"571 1000 CURVE",
"591 744 LINE"
);
},
{
closed = 0;
nodes = (
"721 944 LINE",
"743 1000 LINE"
);
},
{
closed = 1;
nodes = (
"141 580 LINE",
"141 492 LINE",
"403 492 LINE",
"403 580 LINE"
);
},
{
closed = 1;
nodes = (
"571 1000 LINE",
"371 1000 OFFCURVE",
"141 920 OFFCURVE",
"141 580 CURVE",
"403 580 LINE",
"403 728 OFFCURVE",
"465 744 OFFCURVE",
"591 744 CURVE"
);
},
{
closed = 1;
nodes = (
"687 744 OFFCURVE",
"721 686 OFFCURVE",
"721 580 CURVE",
"871 580 LINE",
"871 830 OFFCURVE",
"791 1000 OFFCURVE",
"571 1000 CURVE",
"591 744 LINE"
);
},
{
closed = 1;
nodes = (
"403 492 LINE",
"141 492 LINE",
"141 420 LINE",
"403 420 LINE"
);
},
{
closed = 1;
nodes = (
"465 256 OFFCURVE",
"403 272 OFFCURVE",
"403 420 CURVE",
"141 420 LINE",
"141 80 OFFCURVE",
"371 0 OFFCURVE",
"571 0 CURVE",
"591 256 LINE"
);
},
{
closed = 1;
nodes = (
"571 0 LINE",
"791 0 OFFCURVE",
"871 170 OFFCURVE",
"871 420 CURVE",
"721 420 LINE",
"721 314 OFFCURVE",
"687 256 OFFCURVE",
"591 256 CURVE"
);
},
{
closed = 1;
nodes = (
"403 492 LINE",
"141 492 LINE",
"141 420 LINE",
"403 420 LINE"
);
},
{
closed = 1;
nodes = (
"465 256 OFFCURVE",
"403 272 OFFCURVE",
"403 420 CURVE",
"141 420 LINE",
"141 80 OFFCURVE",
"371 0 OFFCURVE",
"571 0 CURVE",
"591 256 LINE"
);
},
{
closed = 1;
nodes = (
"571 0 LINE",
"791 0 OFFCURVE",
"871 170 OFFCURVE",
"871 420 CURVE",
"721 420 LINE",
"721 314 OFFCURVE",
"687 256 OFFCURVE",
"591 256 CURVE"
);
},
{
closed = 1;
nodes = (
"403 492 LINE",
"141 492 LINE",
"141 420 LINE",
"403 420 LINE"
);
},
{
closed = 1;
nodes = (
"465 256 OFFCURVE",
"403 272 OFFCURVE",
"403 420 CURVE",
"141 420 LINE",
"141 80 OFFCURVE",
"371 0 OFFCURVE",
"571 0 CURVE",
"591 256 LINE"
);
},
{
closed = 1;
nodes = (
"571 0 LINE",
"791 0 OFFCURVE",
"871 170 OFFCURVE",
"871 420 CURVE",
"721 420 LINE",
"721 314 OFFCURVE",
"687 256 OFFCURVE",
"591 256 CURVE"
);
},
{
closed = 1;
nodes = (
"403 492 LINE",
"141 492 LINE",
"141 420 LINE",
"403 420 LINE"
);
},
{
closed = 1;
nodes = (
"465 256 OFFCURVE",
"403 272 OFFCURVE",
"403 420 CURVE",
"141 420 LINE",
"141 80 OFFCURVE",
"371 0 OFFCURVE",
"571 0 CURVE",
"591 256 LINE"
);
},
{
closed = 1;
nodes = (
"571 0 LINE",
"791 0 OFFCURVE",
"871 170 OFFCURVE",
"871 420 CURVE",
"721 420 LINE",
"721 314 OFFCURVE",
"687 256 OFFCURVE",
"591 256 CURVE"
);
}
);
width = 1200;
}
);
unicode = 0071;
},
{
glyphname = r;
lastChange = "2021-04-19 18:16:51 +0000";
layers = (
{
layerId = "A833981A-68C5-4528-81CD-92C717829696";
paths = (
{
closed = 1;
nodes = (
"42 0 LINE",
"302 0 LINE",
"302 944 LINE",
"280 1000 LINE",
"42 1000 LINE"
);
},
{
closed = 1;
nodes = (
"622 492 LINE",
"882 492 LINE",
"882 580 LINE",
"620 580 LINE"
);
},
{
closed = 1;
nodes = (
"558 744 OFFCURVE",
"620 728 OFFCURVE",
"620 580 CURVE",
"882 580 LINE",
"882 920 OFFCURVE",
"652 1000 OFFCURVE",
"452 1000 CURVE",
"432 744 LINE"
);
},
{
closed = 1;
nodes = (
"452 1000 LINE",
"232 1000 OFFCURVE",
"152 830 OFFCURVE",
"152 580 CURVE",
"302 580 LINE",
"302 686 OFFCURVE",
"336 744 OFFCURVE",
"432 744 CURVE"
);
},
{
closed = 1;
nodes = (
"622 492 LINE",
"882 492 LINE",
"882 580 LINE",
"620 580 LINE"
);
},
{
closed = 1;
nodes = (
"558 744 OFFCURVE",
"620 728 OFFCURVE",
"620 580 CURVE",
"882 580 LINE",
"882 920 OFFCURVE",
"652 1000 OFFCURVE",
"452 1000 CURVE",
"432 744 LINE"
);
},
{
closed = 1;
nodes = (
"452 1000 LINE",
"232 1000 OFFCURVE",
"152 830 OFFCURVE",
"152 580 CURVE",
"302 580 LINE",
"302 686 OFFCURVE",
"336 744 OFFCURVE",
"432 744 CURVE"
);
},
{
closed = 1;
nodes = (
"622 492 LINE",
"882 492 LINE",
"882 580 LINE",
"620 580 LINE"
);
},
{
closed = 1;
nodes = (
"558 744 OFFCURVE",
"620 728 OFFCURVE",
"620 580 CURVE",
"882 580 LINE",
"882 920 OFFCURVE",
"652 1000 OFFCURVE",
"452 1000 CURVE",
"432 744 LINE"
);
},
{
closed = 1;
nodes = (
"452 1000 LINE",
"232 1000 OFFCURVE",
"152 830 OFFCURVE",
"152 580 CURVE",
"302 580 LINE",
"302 686 OFFCURVE",
"336 744 OFFCURVE",
"432 744 CURVE"
);
},
{
closed = 1;
nodes = (
"622 492 LINE",
"882 492 LINE",
"882 580 LINE",
"620 580 LINE"
);
},
{
closed = 1;
nodes = (
"558 744 OFFCURVE",
"620 728 OFFCURVE",
"620 580 CURVE",
"882 580 LINE",
"882 920 OFFCURVE",
"652 1000 OFFCURVE",
"452 1000 CURVE",
"432 744 LINE"
);
},
{
closed = 1;
nodes = (
"452 1000 LINE",
"232 1000 OFFCURVE",
"152 830 OFFCURVE",
"152 580 CURVE",
"302 580 LINE",
"302 686 OFFCURVE",
"336 744 OFFCURVE",
"432 744 CURVE"
);
},
{
closed = 1;
nodes = (
"882 492 LINE",
"622 492 LINE"
);
},
{
closed = 1;
nodes = (
"882 492 LINE",
"622 492 LINE"
);
},
{
closed = 1;
nodes = (
"882 492 LINE",
"622 492 LINE"
);
},
{
closed = 1;
nodes = (
"882 492 LINE",
"622 492 LINE"
);
}
);
width = 1200;
}
);
unicode = 0072;
},
{
glyphname = s;
lastChange = "2021-04-19 18:45:48 +0000";
layers = (
{
components = (
{
name = yarimS;
transform = "{1, 0, 0, 1, -48, 0}";
}
);
layerId = "A833981A-68C5-4528-81CD-92C717829696";
paths = (
{
closed = 1;
nodes = (
"654 588 OFFCURVE",
"838 460 OFFCURVE",
"838 296 CURVE SMOOTH",
"838 130 OFFCURVE",
"654 0 OFFCURVE",
"440 0 CURVE SMOOTH",
"220 0 OFFCURVE",
"42 130 OFFCURVE",
"42 296 CURVE",
"268 322 LINE",
"268 268 OFFCURVE",
"346 228 OFFCURVE",
"440 228 CURVE SMOOTH",
"532 228 OFFCURVE",
"606 268 OFFCURVE",
"606 322 CURVE SMOOTH",
"606 372 OFFCURVE",
"532 410 OFFCURVE",
"440 410 CURVE",
"440 588 LINE"
);
},
{
closed = 1;
nodes = (
"226 410 OFFCURVE",
"42 540 OFFCURVE",
"42 704 CURVE SMOOTH",
"42 872 OFFCURVE",
"226 1000 OFFCURVE",
"440 1000 CURVE SMOOTH",
"660 1000 OFFCURVE",
"838 872 OFFCURVE",
"838 704 CURVE",
"612 680 LINE",
"612 730 OFFCURVE",
"534 770 OFFCURVE",
"440 770 CURVE SMOOTH",
"348 770 OFFCURVE",
"274 730 OFFCURVE",
"274 680 CURVE SMOOTH",
"274 626 OFFCURVE",
"348 588 OFFCURVE",
"440 588 CURVE",
"440 410 LINE"
);
}
);
width = 1200;
}
);
unicode = 0073;
},
{
glyphname = scedilla;
lastChange = "2021-04-19 18:46:41 +0000";
layers = (
{
components = (
{
name = cedillacomb;
transform = "{1, 0, 0, 1, -48, 0}";
}
);
layerId = "A833981A-68C5-4528-81CD-92C717829696";
paths = (
{
closed = 1;
nodes = (
"654 588 OFFCURVE",
"832 460 OFFCURVE",
"832 296 CURVE SMOOTH",
"832 130 OFFCURVE",
"654 0 OFFCURVE",
"440 0 CURVE SMOOTH",
"220 0 OFFCURVE",
"42 130 OFFCURVE",
"42 296 CURVE",
"268 322 LINE",
"268 268 OFFCURVE",
"346 228 OFFCURVE",
"440 228 CURVE SMOOTH",
"532 228 OFFCURVE",
"606 268 OFFCURVE",
"606 322 CURVE SMOOTH",
"606 372 OFFCURVE",
"532 410 OFFCURVE",
"440 410 CURVE",
"440 588 LINE"
);
},
{
closed = 1;
nodes = (
"226 410 OFFCURVE",
"48 540 OFFCURVE",
"48 704 CURVE SMOOTH",
"48 872 OFFCURVE",
"226 1000 OFFCURVE",
"440 1000 CURVE SMOOTH",
"660 1000 OFFCURVE",
"838 872 OFFCURVE",
"838 704 CURVE",
"612 680 LINE",
"612 730 OFFCURVE",
"534 770 OFFCURVE",
"440 770 CURVE SMOOTH",
"348 770 OFFCURVE",
"274 730 OFFCURVE",
"274 680 CURVE SMOOTH",
"274 626 OFFCURVE",
"348 588 OFFCURVE",
"440 588 CURVE",
"440 410 LINE"
);
},
{
closed = 1;
nodes = (
"654 588 OFFCURVE",
"832 460 OFFCURVE",
"832 296 CURVE SMOOTH",
"832 130 OFFCURVE",
"654 0 OFFCURVE",
"440 0 CURVE SMOOTH",
"220 0 OFFCURVE",
"42 130 OFFCURVE",
"42 296 CURVE",
"268 322 LINE",
"268 268 OFFCURVE",
"346 228 OFFCURVE",
"440 228 CURVE SMOOTH",
"532 228 OFFCURVE",
"606 268 OFFCURVE",
"606 322 CURVE SMOOTH",
"606 372 OFFCURVE",
"532 410 OFFCURVE",
"440 410 CURVE",
"440 588 LINE"
);
},
{
closed = 1;
nodes = (
"226 410 OFFCURVE",
"48 540 OFFCURVE",
"48 704 CURVE SMOOTH",
"48 872 OFFCURVE",
"226 1000 OFFCURVE",
"440 1000 CURVE SMOOTH",
"660 1000 OFFCURVE",
"838 872 OFFCURVE",
"838 704 CURVE",
"612 680 LINE",
"612 730 OFFCURVE",
"534 770 OFFCURVE",
"440 770 CURVE SMOOTH",
"348 770 OFFCURVE",
"274 730 OFFCURVE",
"274 680 CURVE SMOOTH",
"274 626 OFFCURVE",
"348 588 OFFCURVE",
"440 588 CURVE",
"440 410 LINE"
);
}
);
width = 1200;
}
);
unicode = 015F;
},
{
glyphname = scommaaccent;
lastChange = "2021-04-13 13:03:28 +0000";
layers = (
{
layerId = "A833981A-68C5-4528-81CD-92C717829696";
paths = (
{
closed = 1;
nodes = (
"348 294 OFFCURVE",
"437 230 OFFCURVE",
"437 148 CURVE SMOOTH",
"437 65 OFFCURVE",
"348 0 OFFCURVE",
"241 0 CURVE SMOOTH",
"131 0 OFFCURVE",
"42 65 OFFCURVE",
"42 148 CURVE",
"155 161 LINE",
"155 134 OFFCURVE",
"194 114 OFFCURVE",
"241 114 CURVE SMOOTH",
"287 114 OFFCURVE",
"324 134 OFFCURVE",
"324 161 CURVE SMOOTH",
"324 186 OFFCURVE",
"287 205 OFFCURVE",
"241 205 CURVE",
"241 294 LINE"
);
},
{
closed = 1;
nodes = (
"134 205 OFFCURVE",
"45 270 OFFCURVE",
"45 352 CURVE SMOOTH",
"45 436 OFFCURVE",
"134 500 OFFCURVE",
"241 500 CURVE SMOOTH",
"351 500 OFFCURVE",
"440 436 OFFCURVE",
"440 352 CURVE",
"327 340 LINE",
"327 365 OFFCURVE",
"288 385 OFFCURVE",
"241 385 CURVE SMOOTH",
"195 385 OFFCURVE",
"158 365 OFFCURVE",
"158 340 CURVE SMOOTH",
"158 313 OFFCURVE",
"195 294 OFFCURVE",
"241 294 CURVE",
"241 205 LINE"
);
},
{
closed = 1;
nodes = (
"348 294 OFFCURVE",
"437 230 OFFCURVE",
"437 148 CURVE SMOOTH",
"437 65 OFFCURVE",
"348 0 OFFCURVE",
"241 0 CURVE SMOOTH",
"131 0 OFFCURVE",
"42 65 OFFCURVE",
"42 148 CURVE",
"155 161 LINE",
"155 134 OFFCURVE",
"194 114 OFFCURVE",
"241 114 CURVE SMOOTH",
"287 114 OFFCURVE",
"324 134 OFFCURVE",
"324 161 CURVE SMOOTH",
"324 186 OFFCURVE",
"287 205 OFFCURVE",
"241 205 CURVE",
"241 294 LINE"
);
},
{
closed = 1;
nodes = (
"134 205 OFFCURVE",
"45 270 OFFCURVE",
"45 352 CURVE SMOOTH",
"45 436 OFFCURVE",
"134 500 OFFCURVE",
"241 500 CURVE SMOOTH",
"351 500 OFFCURVE",
"440 436 OFFCURVE",
"440 352 CURVE",
"327 340 LINE",
"327 365 OFFCURVE",
"288 385 OFFCURVE",
"241 385 CURVE SMOOTH",
"195 385 OFFCURVE",
"158 365 OFFCURVE",
"158 340 CURVE SMOOTH",
"158 313 OFFCURVE",
"195 294 OFFCURVE",
"241 294 CURVE",
"241 205 LINE"
);
},
{
closed = 1;
nodes = (
"173 -32 OFFCURVE",
"137 -90 OFFCURVE",
"59 -90 CURVE",
"157 -158 LINE",
"269 -159 OFFCURVE",
"311 -33 OFFCURVE",
"311 11 CURVE",
"173 11 LINE"
);
}
);
width = 482;
}
);
unicode = 0219;
},
{
glyphname = germandbls;
lastChange = "2021-04-19 17:55:58 +0000";
layers = (
{
layerId = "A833981A-68C5-4528-81CD-92C717829696";
paths = (
{
closed = 1;
nodes = (
"135 -2 LINE",
"395 -2 LINE",
"395 1398 LINE",
"225 1398 LINE",
"135 1398 OFFCURVE",
"135 1318 OFFCURVE",
"135 1260 CURVE"
);
},
{
closed = 1;
nodes = (
"645 558 LINE",
"645 818 LINE",
"517 818 LINE",
"517 558 LINE"
);
},
{
closed = 1;
nodes = (
"645 1138 LINE",
"645 1398 LINE",
"273 1398 LINE",
"273 1138 LINE"
);
},
{
closed = 1;
nodes = (
"645 558 LINE",
"1087 558 OFFCURVE",
"1085 1398 OFFCURVE",
"645 1398 CURVE",
"645 1138 LINE",
"775 1138 OFFCURVE",
"775 818 OFFCURVE",
"645 818 CURVE"
);
},
{
closed = 1;
nodes = (
"687 -2 LINE",
"1125 -2 OFFCURVE",
"1123 818 OFFCURVE",
"687 818 CURVE",
"645 558 LINE",
"775 558 OFFCURVE",
"775 256 OFFCURVE",
"645 256 CURVE"
);
},
{
closed = 1;
nodes = (
"687 -2 LINE",
"645 256 LINE",
"517 258 LINE",
"517 -2 LINE"
);
}
);
width = 1200;
}
);
unicode = 00DF;
},
{
glyphname = t;
lastChange = "2021-04-19 18:16:42 +0000";
layers = (
{
layerId = "A833981A-68C5-4528-81CD-92C717829696";
paths = (
{
closed = 1;
nodes = (
"312 430 LINE",
"572 48 LINE",
"572 1400 LINE",
"312 1370 LINE"
);
},
{
closed = 1;
nodes = (
"42 1000 LINE",
"42 740 LINE",
"842 740 LINE",
"842 1000 LINE"
);
},
{
closed = 1;
nodes = (
"312 430 LINE",
"312 230 OFFCURVE",
"402 0 OFFCURVE",
"742 0 CURVE",
"742 262 LINE",
"594 262 OFFCURVE",
"572 324 OFFCURVE",
"572 450 CURVE"
);
}
);
width = 1200;
}
);
unicode = 0074;
},
{
glyphname = u;
lastChange = "2021-04-19 17:39:00 +0000";
layers = (
{
layerId = "A833981A-68C5-4528-81CD-92C717829696";
paths = (
{
closed = 1;
nodes = (
"1027 1000 LINE",
"767 1000 LINE",
"767 56 LINE",
"789 0 LINE",
"1027 0 LINE"
);
},
{
closed = 1;
nodes = (
"447 1000 LINE",
"187 1000 LINE",
"187 420 LINE",
"449 420 LINE"
);
},
{
closed = 1;
nodes = (
"511 256 OFFCURVE",
"449 272 OFFCURVE",
"449 420 CURVE",
"187 420 LINE",
"187 80 OFFCURVE",
"417 0 OFFCURVE",
"617 0 CURVE",
"637 256 LINE"
);
},
{
closed = 1;
nodes = (
"617 0 LINE",
"837 0 OFFCURVE",
"917 170 OFFCURVE",
"917 420 CURVE",
"767 420 LINE",
"767 314 OFFCURVE",
"733 256 OFFCURVE",
"637 256 CURVE"
);
}
);
width = 1200;
}
);
unicode = 0075;
},
{
glyphname = udieresis;
lastChange = "2021-04-19 17:34:36 +0000";
layers = (
{
components = (
{
name = dieresiscomb;
transform = "{2, 0, 0, 2, -252, -333}";
}
);
layerId = "A833981A-68C5-4528-81CD-92C717829696";
paths = (
{
closed = 1;
nodes = (
"672 668 LINE",
"412 668 LINE",
"412 -277 LINE",
"434 -333 LINE",
"672 -333 LINE"
);
},
{
closed = 1;
nodes = (
"92 668 LINE",
"-168 668 LINE",
"-168 88 LINE",
"94 88 LINE"
);
},
{
closed = 1;
nodes = (
"156 -77 OFFCURVE",
"94 -61 OFFCURVE",
"94 88 CURVE",
"-168 88 LINE",
"-168 -253 OFFCURVE",
"62 -333 OFFCURVE",
"262 -333 CURVE",
"282 -77 LINE"
);
},
{
closed = 1;
nodes = (
"262 -333 LINE",
"482 -333 OFFCURVE",
"562 -163 OFFCURVE",
"562 88 CURVE",
"412 88 LINE",
"412 -19 OFFCURVE",
"378 -77 OFFCURVE",
"282 -77 CURVE"
);
}
);
width = 504;
}
);
unicode = 00FC;
},
{
glyphname = v;
lastChange = "2021-04-19 17:34:36 +0000";
layers = (
{
layerId = "A833981A-68C5-4528-81CD-92C717829696";
paths = (
{
closed = 1;
nodes = (
"109 -250 LINE",
"369 -250 LINE",
"67 750 LINE",
"-171 750 LINE"
);
},
{
closed = 1;
nodes = (
"109 -250 LINE",
"369 -250 LINE",
"681 650 LINE",
"419 650 LINE"
);
},
{
closed = 1;
nodes = (
"419 650 LINE",
"681 650 LINE",
"681 750 LINE",
"419 750 LINE"
);
}
);
width = 510;
}
);
unicode = 0076;
},
{
glyphname = w;
lastChange = "2021-04-19 19:17:59 +0000";
layers = (
{
layerId = "A833981A-68C5-4528-81CD-92C717829696";
paths = (
{
closed = 1;
nodes = (
"433 0 LINE",
"694 0 LINE",
"391 1000 LINE",
"153 1000 LINE"
);
},
{
closed = 1;
nodes = (
"433 0 LINE",
"694 0 LINE",
"1006 900 LINE",
"744 900 LINE"
);
},
{
closed = 1;
nodes = (
"744 900 LINE",
"1006 900 LINE",
"1006 1000 LINE",
"744 1000 LINE"
);
},
{
closed = 1;
nodes = (
"433 0 LINE",
"694 0 LINE",
"391 1000 LINE",
"153 1000 LINE"
);
},
{
closed = 0;
nodes = (
"433 0 LINE",
"694 0 LINE"
);
},
{
closed = 1;
nodes = (
"433 0 LINE",
"694 0 LINE",
"391 1000 LINE",
"153 1000 LINE"
);
},
{
closed = 1;
nodes = (
"433 0 LINE",
"694 0 LINE",
"1006 900 LINE",
"744 900 LINE"
);
},
{
closed = 1;
nodes = (
"744 900 LINE",
"1006 900 LINE",
"1006 1000 LINE",
"744 1000 LINE"
);
},
{
closed = 1;
nodes = (
"433 0 LINE",
"694 0 LINE",
"391 1000 LINE",
"153 1000 LINE"
);
},
{
closed = 0;
nodes = (
"433 0 LINE",
"694 0 LINE"
);
},
{
closed = 1;
nodes = (
"1048 0 LINE",
"1308 0 LINE",
"1006 1000 LINE",
"768 1000 LINE"
);
},
{
closed = 1;
nodes = (
"1048 0 LINE",
"1308 0 LINE",
"1620 900 LINE",
"1358 900 LINE"
);
},
{
closed = 1;
nodes = (
"1358 900 LINE",
"1620 900 LINE",
"1620 1000 LINE",
"1358 1000 LINE"
);
},
{
closed = 1;
nodes = (
"1048 0 LINE",
"1308 0 LINE",
"1006 1000 LINE",
"768 1000 LINE"
);
},
{
closed = 0;
nodes = (
"1048 0 LINE",
"1308 0 LINE"
);
},
{
closed = 1;
nodes = (
"1048 0 LINE",
"1308 0 LINE",
"1006 1000 LINE",
"768 1000 LINE"
);
},
{
closed = 1;
nodes = (
"1048 0 LINE",
"1308 0 LINE",
"1620 900 LINE",
"1358 900 LINE"
);
},
{
closed = 1;
nodes = (
"1358 900 LINE",
"1620 900 LINE",
"1620 1000 LINE",
"1358 1000 LINE"
);
},
{
closed = 1;
nodes = (
"1048 0 LINE",
"1308 0 LINE",
"1006 1000 LINE",
"768 1000 LINE"
);
},
{
closed = 0;
nodes = (
"1048 0 LINE",
"1308 0 LINE"
);
}
);
width = 1800;
}
);
unicode = 0077;
},
{
glyphname = x;
lastChange = "2021-04-19 17:34:36 +0000";
layers = (
{
layerId = "A833981A-68C5-4528-81CD-92C717829696";
paths = (
{
closed = 1;
nodes = (
"421 -250 LINE",
"683 -250 LINE",
"69 750 LINE",
"-170 750 LINE"
);
},
{
closed = 1;
nodes = (
"-172 -250 LINE",
"89 -250 LINE",
"683 650 LINE",
"421 650 LINE"
);
},
{
closed = 1;
nodes = (
"421 650 LINE",
"683 650 LINE",
"683 750 LINE",
"421 750 LINE"
);
}
);
width = 511;
}
);
unicode = 0078;
},
{
glyphname = y;
lastChange = "2021-04-19 17:34:36 +0000";
layers = (
{
layerId = "A833981A-68C5-4528-81CD-92C717829696";
paths = (
{
closed = 1;
nodes = (
"109 -150 LINE",
"369 -150 LINE",
"67 850 LINE",
"-171 850 LINE"
);
},
{
closed = 1;
nodes = (
"109 -150 LINE",
"369 -150 LINE",
"681 750 LINE",
"419 750 LINE"
);
},
{
closed = 1;
nodes = (
"419 750 LINE",
"681 750 LINE",
"681 850 LINE",
"419 850 LINE"
);
},
{
closed = 1;
nodes = (
"119 -186 OFFCURVE",
"67 -324 OFFCURVE",
"-91 -324 CURVE",
"-91 -550 LINE",
"143 -550 OFFCURVE",
"265 -470 OFFCURVE",
"369 -150 CURVE",
"109 -150 LINE"
);
}
);
width = 510;
}
);
unicode = 0079;
},
{
glyphname = z;
lastChange = "2021-04-19 17:36:40 +0000";
layers = (
{
layerId = "A833981A-68C5-4528-81CD-92C717829696";
paths = (
{
closed = 1;
nodes = (
"84 240 LINE",
"437 240 LINE",
"939 770 LINE",
"577 770 LINE"
);
},
{
closed = 1;
nodes = (
"86 770 LINE",
"939 770 LINE",
"939 1000 LINE",
"86 1000 LINE"
);
},
{
closed = 0;
nodes = (
"939 0 LINE"
);
},
{
closed = 1;
nodes = (
"86 0 LINE",
"939 0 LINE",
"939 240 LINE",
"86 240 LINE"
);
}
);
width = 1023;
}
);
unicode = 007A;
},
{
glyphname = zcaron;
lastChange = "2021-04-19 17:34:36 +0000";
layers = (
{
components = (
{
name = caroncomb;
transform = "{2, 0, 0, 2, -356, -318}";
}
);
layerId = "A833981A-68C5-4528-81CD-92C717829696";
paths = (
{
closed = 1;
nodes = (
"-172 -78 LINE",
"181 -78 LINE",
"683 453 LINE",
"321 453 LINE"
);
},
{
closed = 1;
nodes = (
"-170 453 LINE",
"683 453 LINE",
"683 683 LINE",
"-170 683 LINE"
);
},
{
closed = 0;
nodes = (
"683 -318 LINE"
);
},
{
closed = 1;
nodes = (
"-170 -318 LINE",
"683 -318 LINE",
"683 -78 LINE",
"-170 -78 LINE"
);
}
);
width = 511;
}
);
unicode = 017E;
},
{
glyphname = zero;
lastChange = "2021-04-19 19:03:52 +0000";
layers = (
{
layerId = "A833981A-68C5-4528-81CD-92C717829696";
paths = (
{
closed = 0;
nodes = (
"492 0 LINE"
);
},
{
closed = 1;
nodes = (
"492 0 LINE",
"1092 0 OFFCURVE",
"1090 1400 OFFCURVE",
"492 1400 CURVE",
"492 1138 LINE",
"784 1140 OFFCURVE",
"784 262 OFFCURVE",
"492 262 CURVE"
);
},
{
closed = 0;
nodes = (
"492 0 LINE"
);
},
{
closed = 1;
nodes = (
"200 262 OFFCURVE",
"200 1140 OFFCURVE",
"492 1138 CURVE",
"492 1400 LINE",
"-106 1400 OFFCURVE",
"-108 0 OFFCURVE",
"492 0 CURVE",
"492 262 LINE"
);
}
);
width = 1200;
}
);
unicode = 0030;
},
{
glyphname = one;
lastChange = "2021-04-19 19:04:01 +0000";
layers = (
{
layerId = "A833981A-68C5-4528-81CD-92C717829696";
paths = (
{
closed = 1;
nodes = (
"322 0 LINE",
"582 0 LINE",
"582 1400 LINE",
"322 1370 LINE"
);
},
{
closed = 1;
nodes = (
"42 1090 LINE",
"322 1120 LINE",
"582 1400 LINE",
"42 1340 LINE"
);
}
);
width = 1200;
}
);
unicode = 0031;
},
{
glyphname = two;
lastChange = "2021-04-19 19:04:05 +0000";
layers = (
{
layerId = "A833981A-68C5-4528-81CD-92C717829696";
paths = (
{
closed = 1;
nodes = (
"676 986 LINE",
"676 1056 OFFCURVE",
"592 1160 OFFCURVE",
"488 1160 CURVE SMOOTH",
"382 1160 OFFCURVE",
"292 1056 OFFCURVE",
"292 986 CURVE",
"42 986 LINE",
"42 1220 OFFCURVE",
"238 1400 OFFCURVE",
"488 1400 CURVE SMOOTH",
"732 1400 OFFCURVE",
"934 1220 OFFCURVE",
"934 986 CURVE"
);
},
{
closed = 1;
nodes = (
"42 0 LINE",
"934 0 LINE",
"934 256 LINE",
"42 256 LINE"
);
},
{
closed = 1;
nodes = (
"676 720 OFFCURVE",
"42 720 OFFCURVE",
"42 256 CURVE",
"302 256 LINE",
"302 578 OFFCURVE",
"934 578 OFFCURVE",
"934 986 CURVE",
"676 986 LINE"
);
}
);
width = 1200;
}
);
unicode = 0032;
},
{
glyphname = three;
lastChange = "2021-04-19 19:04:11 +0000";
layers = (
{
layerId = "A833981A-68C5-4528-81CD-92C717829696";
paths = (
{
closed = 1;
nodes = (
"292 414 LINE",
"292 344 OFFCURVE",
"382 240 OFFCURVE",
"488 240 CURVE SMOOTH",
"592 240 OFFCURVE",
"676 344 OFFCURVE",
"676 414 CURVE",
"934 414 LINE",
"934 552 OFFCURVE",
"862 630 OFFCURVE",
"766 702 CURVE",
"466 702 LINE",
"466 632 LINE",
"582 572 OFFCURVE",
"676 516 OFFCURVE",
"676 414 CURVE",
"934 414 LINE",
"934 180 OFFCURVE",
"732 0 OFFCURVE",
"488 0 CURVE SMOOTH",
"238 0 OFFCURVE",
"42 180 OFFCURVE",
"42 414 CURVE"
);
},
{
closed = 1;
nodes = (
"42 1220 OFFCURVE",
"238 1400 OFFCURVE",
"488 1400 CURVE SMOOTH",
"732 1400 OFFCURVE",
"934 1220 OFFCURVE",
"934 986 CURVE",
"676 986 LINE",
"676 884 OFFCURVE",
"582 830 OFFCURVE",
"466 770 CURVE",
"466 702 LINE",
"766 702 LINE",
"862 774 OFFCURVE",
"934 848 OFFCURVE",
"934 986 CURVE",
"676 986 LINE",
"676 1056 OFFCURVE",
"592 1160 OFFCURVE",
"488 1160 CURVE SMOOTH",
"382 1160 OFFCURVE",
"292 1056 OFFCURVE",
"292 986 CURVE",
"42 986 LINE"
);
}
);
width = 1200;
}
);
unicode = 0033;
},
{
glyphname = four;
lastChange = "2021-04-19 19:04:17 +0000";
layers = (
{
layerId = "A833981A-68C5-4528-81CD-92C717829696";
paths = (
{
closed = 1;
nodes = (
"518 0 LINE",
"778 0 LINE",
"778 1400 LINE",
"518 1400 LINE"
);
},
{
closed = 1;
nodes = (
"302 480 LINE",
"778 1400 LINE",
"518 1400 LINE",
"42 480 LINE"
);
},
{
closed = 1;
nodes = (
"42 480 LINE",
"42 220 LINE",
"934 220 LINE",
"934 480 LINE"
);
}
);
width = 1200;
}
);
unicode = 0034;
},
{
glyphname = five;
lastChange = "2021-04-19 19:04:22 +0000";
layers = (
{
layerId = "A833981A-68C5-4528-81CD-92C717829696";
paths = (
{
closed = 1;
nodes = (
"296 414 LINE",
"296 344 OFFCURVE",
"386 240 OFFCURVE",
"492 240 CURVE SMOOTH",
"596 240 OFFCURVE",
"674 344 OFFCURVE",
"674 494 CURVE",
"932 494 LINE",
"924 142 OFFCURVE",
"736 0 OFFCURVE",
"492 0 CURVE SMOOTH",
"242 0 OFFCURVE",
"46 180 OFFCURVE",
"46 414 CURVE"
);
},
{
closed = 1;
nodes = (
"118 1146 LINE",
"876 1142 LINE",
"876 1400 LINE",
"108 1400 LINE"
);
},
{
closed = 1;
nodes = (
"108 1400 LINE",
"42 656 LINE",
"296 656 LINE",
"358 1400 LINE"
);
},
{
closed = 1;
nodes = (
"674 494 LINE",
"932 494 LINE",
"932 494 LINE",
"674 494 LINE"
);
},
{
closed = 1;
nodes = (
"354 656 LINE",
"354 656 OFFCURVE",
"386 704 OFFCURVE",
"492 704 CURVE SMOOTH",
"604 704 OFFCURVE",
"674 644 OFFCURVE",
"674 494 CURVE",
"932 494 LINE",
"932 728 OFFCURVE",
"780 944 OFFCURVE",
"492 944 CURVE SMOOTH",
"110 944 OFFCURVE",
"304 742 OFFCURVE",
"42 656 CURVE"
);
}
);
width = 1200;
}
);
unicode = 0035;
},
{
glyphname = six;
lastChange = "2021-04-19 19:04:37 +0000";
layers = (
{
layerId = "A833981A-68C5-4528-81CD-92C717829696";
paths = (
{
closed = 1;
nodes = (
"932 260 OFFCURVE",
"794 0 OFFCURVE",
"482 0 CURVE SMOOTH",
"238 0 OFFCURVE",
"50 142 OFFCURVE",
"42 494 CURVE",
"300 494 LINE",
"300 344 OFFCURVE",
"378 240 OFFCURVE",
"482 240 CURVE SMOOTH",
"636 240 OFFCURVE",
"674 424 OFFCURVE",
"674 494 CURVE",
"932 494 LINE"
);
},
{
closed = 1;
nodes = (
"42 494 LINE",
"300 494 LINE"
);
},
{
closed = 1;
nodes = (
"634 1028 LINE",
"634 1098 OFFCURVE",
"636 1160 OFFCURVE",
"482 1160 CURVE SMOOTH",
"378 1160 OFFCURVE",
"300 1056 OFFCURVE",
"300 906 CURVE",
"42 906 LINE",
"50 1258 OFFCURVE",
"238 1400 OFFCURVE",
"482 1400 CURVE SMOOTH",
"794 1400 OFFCURVE",
"892 1262 OFFCURVE",
"892 1028 CURVE"
);
},
{
closed = 1;
nodes = (
"42 494 LINE",
"300 494 LINE",
"300 906 LINE",
"42 906 LINE"
);
},
{
closed = 1;
nodes = (
"492 704 LINE",
"604 704 OFFCURVE",
"674 644 OFFCURVE",
"674 494 CURVE",
"932 494 LINE",
"932 728 OFFCURVE",
"780 944 OFFCURVE",
"492 944 CURVE"
);
},
{
closed = 1;
nodes = (
"204 944 OFFCURVE",
"52 728 OFFCURVE",
"52 494 CURVE",
"300 494 LINE",
"300 644 OFFCURVE",
"380 704 OFFCURVE",
"492 704 CURVE",
"492 944 LINE"
);
}
);
width = 1200;
}
);
unicode = 0036;
},
{
glyphname = seven;
lastChange = "2021-04-19 19:04:42 +0000";
layers = (
{
layerId = "A833981A-68C5-4528-81CD-92C717829696";
paths = (
{
closed = 1;
nodes = (
"326 0 LINE",
"586 0 LINE",
"886 1400 LINE",
"624 1360 LINE"
);
},
{
closed = 1;
nodes = (
"42 1150 LINE",
"660 1150 LINE",
"886 1400 LINE",
"42 1400 LINE"
);
}
);
width = 1200;
}
);
unicode = 0037;
},
{
glyphname = eight;
lastChange = "2021-04-19 19:04:45 +0000";
layers = (
{
layerId = "A833981A-68C5-4528-81CD-92C717829696";
paths = (
{
closed = 1;
nodes = (
"1106 0 OFFCURVE",
"1104 872 OFFCURVE",
"498 872 CURVE",
"498 672 LINE",
"792 672 OFFCURVE",
"792 236 OFFCURVE",
"498 236 CURVE",
"498 0 LINE"
);
},
{
closed = 1;
nodes = (
"498 236 LINE",
"202 236 OFFCURVE",
"202 672 OFFCURVE",
"498 672 CURVE",
"498 872 LINE",
"-110 872 OFFCURVE",
"-112 0 OFFCURVE",
"498 0 CURVE"
);
},
{
closed = 1;
nodes = (
"1106 672 OFFCURVE",
"1104 1420 OFFCURVE",
"498 1420 CURVE",
"498 1216 LINE",
"716 1216 OFFCURVE",
"792 872 OFFCURVE",
"498 872 CURVE",
"498 672 LINE"
);
},
{
closed = 1;
nodes = (
"498 872 LINE",
"202 872 OFFCURVE",
"278 1216 OFFCURVE",
"498 1216 CURVE",
"498 1420 LINE",
"-110 1420 OFFCURVE",
"-112 672 OFFCURVE",
"498 672 CURVE"
);
}
);
width = 1200;
}
);
unicode = 0038;
},
{
glyphname = nine;
lastChange = "2021-04-19 19:04:50 +0000";
layers = (
{
layerId = "A833981A-68C5-4528-81CD-92C717829696";
paths = (
{
closed = 1;
nodes = (
"482 696 LINE",
"370 696 OFFCURVE",
"300 756 OFFCURVE",
"300 906 CURVE",
"42 906 LINE",
"42 672 OFFCURVE",
"194 456 OFFCURVE",
"482 456 CURVE"
);
},
{
closed = 1;
nodes = (
"42 1140 OFFCURVE",
"180 1400 OFFCURVE",
"492 1400 CURVE SMOOTH",
"736 1400 OFFCURVE",
"924 1258 OFFCURVE",
"932 906 CURVE",
"674 906 LINE",
"674 1056 OFFCURVE",
"596 1160 OFFCURVE",
"492 1160 CURVE SMOOTH",
"338 1160 OFFCURVE",
"300 976 OFFCURVE",
"300 906 CURVE",
"42 906 LINE"
);
},
{
closed = 1;
nodes = (
"932 906 LINE",
"674 906 LINE"
);
},
{
closed = 1;
nodes = (
"340 372 LINE",
"340 302 OFFCURVE",
"338 240 OFFCURVE",
"492 240 CURVE SMOOTH",
"596 240 OFFCURVE",
"674 344 OFFCURVE",
"674 494 CURVE",
"932 494 LINE",
"924 142 OFFCURVE",
"736 0 OFFCURVE",
"492 0 CURVE SMOOTH",
"180 0 OFFCURVE",
"82 138 OFFCURVE",
"82 372 CURVE"
);
},
{
closed = 1;
nodes = (
"932 906 LINE",
"674 906 LINE",
"674 494 LINE",
"932 494 LINE"
);
},
{
closed = 1;
nodes = (
"770 456 OFFCURVE",
"922 672 OFFCURVE",
"922 906 CURVE",
"674 906 LINE",
"674 756 OFFCURVE",
"594 696 OFFCURVE",
"482 696 CURVE",
"482 456 LINE"
);
}
);
width = 1200;
}
);
unicode = 0039;
},
{
glyphname = period;
lastChange = "2021-04-19 19:05:24 +0000";
layers = (
{
layerId = "A833981A-68C5-4528-81CD-92C717829696";
paths = (
{
closed = 1;
nodes = (
"244 0 OFFCURVE",
"302 58 OFFCURVE",
"302 130 CURVE SMOOTH",
"302 202 OFFCURVE",
"244 260 OFFCURVE",
"172 260 CURVE SMOOTH",
"100 260 OFFCURVE",
"42 202 OFFCURVE",
"42 130 CURVE SMOOTH",
"42 58 OFFCURVE",
"100 0 OFFCURVE",
"172 0 CURVE SMOOTH"
);
}
);
width = 400;
}
);
unicode = 002E;
},
{
glyphname = comma;
lastChange = "2021-04-19 19:05:53 +0000";
layers = (
{
layerId = "A833981A-68C5-4528-81CD-92C717829696";
paths = (
{
closed = 1;
nodes = (
"424 200 OFFCURVE",
"482 258 OFFCURVE",
"482 330 CURVE SMOOTH",
"482 402 OFFCURVE",
"424 460 OFFCURVE",
"352 460 CURVE SMOOTH",
"280 460 OFFCURVE",
"222 402 OFFCURVE",
"222 330 CURVE SMOOTH",
"222 258 OFFCURVE",
"280 200 OFFCURVE",
"352 200 CURVE SMOOTH"
);
},
{
closed = 1;
nodes = (
"232 294 OFFCURVE",
"180 26 OFFCURVE",
"22 26 CURVE",
"76 -200 LINE",
"310 -200 OFFCURVE",
"378 10 OFFCURVE",
"482 330 CURVE",
"396 330 OFFCURVE",
"308 330 OFFCURVE",
"222 330 CURVE"
);
}
);
width = 500;
}
);
unicode = 002C;
},
{
glyphname = colon;
lastChange = "2021-04-19 19:05:59 +0000";
layers = (
{
layerId = "A833981A-68C5-4528-81CD-92C717829696";
paths = (
{
closed = 1;
nodes = (
"246 0 OFFCURVE",
"304 58 OFFCURVE",
"304 130 CURVE SMOOTH",
"304 202 OFFCURVE",
"246 260 OFFCURVE",
"174 260 CURVE SMOOTH",
"102 260 OFFCURVE",
"44 202 OFFCURVE",
"44 130 CURVE SMOOTH",
"44 58 OFFCURVE",
"102 0 OFFCURVE",
"174 0 CURVE SMOOTH"
);
},
{
closed = 1;
nodes = (
"242 740 OFFCURVE",
"300 798 OFFCURVE",
"300 870 CURVE SMOOTH",
"300 942 OFFCURVE",
"242 1000 OFFCURVE",
"170 1000 CURVE SMOOTH",
"98 1000 OFFCURVE",
"40 942 OFFCURVE",
"40 870 CURVE SMOOTH",
"40 798 OFFCURVE",
"98 740 OFFCURVE",
"170 740 CURVE SMOOTH"
);
}
);
width = 500;
}
);
unicode = 003A;
},
{
glyphname = semicolon;
lastChange = "2021-04-19 19:06:15 +0000";
layers = (
{
layerId = "A833981A-68C5-4528-81CD-92C717829696";
paths = (
{
closed = 1;
nodes = (
"444 200 OFFCURVE",
"502 258 OFFCURVE",
"502 330 CURVE SMOOTH",
"502 402 OFFCURVE",
"444 460 OFFCURVE",
"372 460 CURVE SMOOTH",
"300 460 OFFCURVE",
"242 402 OFFCURVE",
"242 330 CURVE SMOOTH",
"242 258 OFFCURVE",
"300 200 OFFCURVE",
"372 200 CURVE SMOOTH"
);
},
{
closed = 1;
nodes = (
"252 294 OFFCURVE",
"200 26 OFFCURVE",
"42 26 CURVE",
"96 -200 LINE",
"330 -200 OFFCURVE",
"398 10 OFFCURVE",
"502 330 CURVE",
"416 330 OFFCURVE",
"328 330 OFFCURVE",
"242 330 CURVE"
);
},
{
closed = 1;
nodes = (
"444 940 OFFCURVE",
"502 998 OFFCURVE",
"502 1070 CURVE SMOOTH",
"502 1142 OFFCURVE",
"444 1200 OFFCURVE",
"372 1200 CURVE SMOOTH",
"300 1200 OFFCURVE",
"242 1142 OFFCURVE",
"242 1070 CURVE SMOOTH",
"242 998 OFFCURVE",
"300 940 OFFCURVE",
"372 940 CURVE SMOOTH"
);
}
);
width = 550;
}
);
unicode = 003B;
},
{
glyphname = exclam;
lastChange = "2021-04-19 19:06:26 +0000";
layers = (
{
layerId = "A833981A-68C5-4528-81CD-92C717829696";
paths = (
{
closed = 1;
nodes = (
"244 0 OFFCURVE",
"302 58 OFFCURVE",
"302 130 CURVE SMOOTH",
"302 202 OFFCURVE",
"244 260 OFFCURVE",
"172 260 CURVE SMOOTH",
"100 260 OFFCURVE",
"42 202 OFFCURVE",
"42 130 CURVE SMOOTH",
"42 58 OFFCURVE",
"100 0 OFFCURVE",
"172 0 CURVE SMOOTH"
);
},
{
closed = 1;
nodes = (
"302 380 LINE",
"302 1400 LINE",
"42 1370 LINE",
"42 380 LINE"
);
}
);
width = 500;
}
);
unicode = 0021;
},
{
glyphname = exclamdown;
lastChange = "2021-04-19 19:06:28 +0000";
layers = (
{
layerId = "A833981A-68C5-4528-81CD-92C717829696";
paths = (
{
closed = 1;
nodes = (
"100 1200 OFFCURVE",
"42 1142 OFFCURVE",
"42 1070 CURVE SMOOTH",
"42 998 OFFCURVE",
"100 940 OFFCURVE",
"172 940 CURVE SMOOTH",
"244 940 OFFCURVE",
"302 998 OFFCURVE",
"302 1070 CURVE SMOOTH",
"302 1142 OFFCURVE",
"244 1200 OFFCURVE",
"172 1200 CURVE SMOOTH"
);
},
{
closed = 1;
nodes = (
"42 -170 LINE",
"302 -200 LINE",
"302 820 LINE",
"42 820 LINE"
);
}
);
width = 500;
}
);
unicode = 00A1;
},
{
glyphname = question;
lastChange = "2021-04-19 19:06:35 +0000";
layers = (
{
layerId = "A833981A-68C5-4528-81CD-92C717829696";
paths = (
{
closed = 1;
nodes = (
"124 1352 OFFCURVE",
"236 1400 OFFCURVE",
"356 1400 CURVE SMOOTH",
"600 1400 OFFCURVE",
"802 1220 OFFCURVE",
"802 986 CURVE SMOOTH",
"802 722 OFFCURVE",
"646 574 OFFCURVE",
"356 574 CURVE",
"356 824 LINE",
"460 824 OFFCURVE",
"544 910 OFFCURVE",
"544 986 CURVE SMOOTH",
"544 1056 OFFCURVE",
"488 1160 OFFCURVE",
"356 1160 CURVE SMOOTH",
"294 1160 OFFCURVE",
"246 1138 OFFCURVE",
"214 1106 CURVE",
"42 1278 LINE"
);
},
{
closed = 1;
nodes = (
"226 202 OFFCURVE",
"284 260 OFFCURVE",
"356 260 CURVE SMOOTH",
"428 260 OFFCURVE",
"486 202 OFFCURVE",
"486 130 CURVE SMOOTH",
"486 58 OFFCURVE",
"428 0 OFFCURVE",
"356 0 CURVE SMOOTH",
"284 0 OFFCURVE",
"226 58 OFFCURVE",
"226 130 CURVE SMOOTH"
);
},
{
closed = 1;
nodes = (
"226 824 LINE",
"486 824 LINE",
"486 380 LINE",
"226 380 LINE"
);
}
);
width = 1000;
}
);
unicode = 003F;
},
{
glyphname = questiondown;
lastChange = "2021-04-19 19:06:42 +0000";
layers = (
{
layerId = "A833981A-68C5-4528-81CD-92C717829696";
paths = (
{
closed = 1;
nodes = (
"214 94 LINE",
"246 62 OFFCURVE",
"294 40 OFFCURVE",
"356 40 CURVE SMOOTH",
"488 40 OFFCURVE",
"544 144 OFFCURVE",
"544 214 CURVE SMOOTH",
"544 290 OFFCURVE",
"460 376 OFFCURVE",
"356 376 CURVE",
"356 626 LINE",
"646 626 OFFCURVE",
"802 478 OFFCURVE",
"802 214 CURVE SMOOTH",
"802 -20 OFFCURVE",
"600 -200 OFFCURVE",
"356 -200 CURVE SMOOTH",
"236 -200 OFFCURVE",
"124 -152 OFFCURVE",
"42 -78 CURVE"
);
},
{
closed = 1;
nodes = (
"226 1142 OFFCURVE",
"284 1200 OFFCURVE",
"356 1200 CURVE SMOOTH",
"428 1200 OFFCURVE",
"486 1142 OFFCURVE",
"486 1070 CURVE SMOOTH",
"486 998 OFFCURVE",
"428 940 OFFCURVE",
"356 940 CURVE SMOOTH",
"284 940 OFFCURVE",
"226 998 OFFCURVE",
"226 1070 CURVE SMOOTH"
);
},
{
closed = 1;
nodes = (
"486 820 LINE",
"486 376 LINE",
"226 376 LINE",
"226 820 LINE"
);
}
);
width = 1000;
}
);
unicode = 00BF;
},
{
glyphname = bullet;
lastChange = "2021-04-19 19:06:50 +0000";
layers = (
{
layerId = "A833981A-68C5-4528-81CD-92C717829696";
paths = (
{
closed = 1;
nodes = (
"546 150 OFFCURVE",
"684 284 OFFCURVE",
"684 450 CURVE SMOOTH",
"684 616 OFFCURVE",
"546 750 OFFCURVE",
"384 750 CURVE SMOOTH",
"218 750 OFFCURVE",
"84 616 OFFCURVE",
"84 450 CURVE SMOOTH",
"84 284 OFFCURVE",
"218 150 OFFCURVE",
"384 150 CURVE SMOOTH"
);
}
);
width = 1000;
}
);
unicode = 2022;
},
{
glyphname = hyphen;
lastChange = "2021-04-19 19:06:56 +0000";
layers = (
{
layerId = "A833981A-68C5-4528-81CD-92C717829696";
paths = (
{
closed = 1;
nodes = (
"42 495 LINE",
"42 235 LINE",
"842 235 LINE",
"842 495 LINE"
);
}
);
width = 1000;
}
);
unicode = 002D;
},
{
glyphname = emdash;
lastChange = "2021-04-19 19:07:05 +0000";
layers = (
{
layerId = "A833981A-68C5-4528-81CD-92C717829696";
paths = (
{
closed = 1;
nodes = (
"42 426 LINE",
"42 206 LINE",
"1274 206 LINE",
"1274 426 LINE"
);
}
);
width = 1400;
}
);
unicode = 2014;
},
{
glyphname = quotedblleft;
lastChange = "2021-04-19 19:07:20 +0000";
layers = (
{
layerId = "A833981A-68C5-4528-81CD-92C717829696";
paths = (
{
closed = 1;
nodes = (
"102 516 LINE",
"322 516 LINE",
"262 1084 LINE",
"42 1084 LINE"
);
},
{
closed = 1;
nodes = (
"422 516 LINE",
"642 516 LINE",
"582 1084 LINE",
"362 1084 LINE"
);
}
);
width = 1000;
}
);
unicode = 201C;
},
{
glyphname = quotedblright;
lastChange = "2021-04-19 19:07:23 +0000";
layers = (
{
layerId = "A833981A-68C5-4528-81CD-92C717829696";
paths = (
{
closed = 1;
nodes = (
"42 516 LINE",
"262 516 LINE",
"322 1084 LINE",
"102 1084 LINE"
);
},
{
closed = 1;
nodes = (
"362 516 LINE",
"582 516 LINE",
"642 1084 LINE",
"422 1084 LINE"
);
}
);
width = 1000;
}
);
unicode = 201D;
},
{
glyphname = quoteleft;
lastChange = "2021-04-19 19:07:26 +0000";
layers = (
{
layerId = "A833981A-68C5-4528-81CD-92C717829696";
paths = (
{
closed = 1;
nodes = (
"102 516 LINE",
"322 516 LINE",
"262 1084 LINE",
"42 1084 LINE"
);
}
);
width = 500;
}
);
unicode = 2018;
},
{
glyphname = quoteright;
lastChange = "2021-04-19 19:07:31 +0000";
layers = (
{
layerId = "A833981A-68C5-4528-81CD-92C717829696";
paths = (
{
closed = 1;
nodes = (
"42 516 LINE",
"262 516 LINE",
"322 1084 LINE",
"102 1084 LINE"
);
}
);
width = 500;
}
);
unicode = 2019;
},
{
glyphname = quotedbl;
lastChange = "2021-04-19 19:07:37 +0000";
layers = (
{
layerId = "A833981A-68C5-4528-81CD-92C717829696";
paths = (
{
closed = 1;
nodes = (
"42 516 LINE",
"262 516 LINE",
"262 1084 LINE",
"42 1084 LINE"
);
},
{
closed = 1;
nodes = (
"362 516 LINE",
"582 516 LINE",
"582 1084 LINE",
"362 1084 LINE"
);
}
);
width = 1200;
}
);
unicode = 0022;
},
{
glyphname = quotesingle;
lastChange = "2021-04-19 19:07:42 +0000";
layers = (
{
layerId = "A833981A-68C5-4528-81CD-92C717829696";
paths = (
{
closed = 1;
nodes = (
"42 516 LINE",
"262 516 LINE",
"262 1084 LINE",
"42 1084 LINE"
);
}
);
width = 500;
}
);
unicode = 0027;
},
{
glyphname = dieresiscomb;
lastChange = "2021-04-19 19:09:28 +0000";
layers = (
{
layerId = "A833981A-68C5-4528-81CD-92C717829696";
paths = (
{
closed = 1;
nodes = (
"242 535 OFFCURVE",
"302 593 OFFCURVE",
"302 667 CURVE SMOOTH",
"302 739 OFFCURVE",
"242 795 OFFCURVE",
"172 795 CURVE SMOOTH",
"100 795 OFFCURVE",
"42 739 OFFCURVE",
"42 667 CURVE SMOOTH",
"42 593 OFFCURVE",
"100 535 OFFCURVE",
"172 535 CURVE SMOOTH"
);
},
{
closed = 1;
nodes = (
"822 535 OFFCURVE",
"882 593 OFFCURVE",
"882 667 CURVE SMOOTH",
"882 739 OFFCURVE",
"822 795 OFFCURVE",
"752 795 CURVE SMOOTH",
"680 795 OFFCURVE",
"622 739 OFFCURVE",
"622 667 CURVE SMOOTH",
"622 593 OFFCURVE",
"680 535 OFFCURVE",
"752 535 CURVE SMOOTH"
);
}
);
width = 1000;
}
);
unicode = 0308;
},
{
glyphname = dotaccentcomb;
lastChange = "2021-04-19 19:09:35 +0000";
layers = (
{
layerId = "A833981A-68C5-4528-81CD-92C717829696";
paths = (
{
closed = 1;
nodes = (
"435 535 OFFCURVE",
"495 593 OFFCURVE",
"495 667 CURVE SMOOTH",
"495 739 OFFCURVE",
"435 795 OFFCURVE",
"365 795 CURVE SMOOTH",
"293 795 OFFCURVE",
"235 739 OFFCURVE",
"235 667 CURVE SMOOTH",
"235 593 OFFCURVE",
"293 535 OFFCURVE",
"365 535 CURVE SMOOTH"
);
}
);
width = 1200;
}
);
unicode = 0307;
},
{
glyphname = gravecomb;
lastChange = "2021-04-19 19:09:39 +0000";
layers = (
{
layerId = "A833981A-68C5-4528-81CD-92C717829696";
paths = (
{
closed = 1;
nodes = (
"552 534 LINE",
"316 732 LINE",
"108 732 LINE",
"242 534 LINE"
);
}
);
width = 1000;
}
);
unicode = 0300;
},
{
glyphname = acutecomb;
lastChange = "2021-04-19 19:17:16 +0000";
layers = (
{
layerId = "A833981A-68C5-4528-81CD-92C717829696";
paths = (
{
closed = 1;
nodes = (
"608 1016 LINE",
"804 1218 LINE",
"544 1218 LINE",
"388 1016 LINE"
);
}
);
width = 1100;
}
);
unicode = 0301;
},
{
glyphname = hungarumlautcomb;
lastChange = "2021-04-19 19:09:47 +0000";
layers = (
{
layerId = "A833981A-68C5-4528-81CD-92C717829696";
paths = (
{
closed = 1;
nodes = (
"409 770 LINE",
"241 770 LINE",
"155 516 LINE",
"323 516 LINE"
);
},
{
closed = 1;
nodes = (
"655 770 LINE",
"485 770 LINE",
"399 516 LINE",
"569 516 LINE"
);
}
);
width = 1100;
}
);
unicode = 030B;
},
{
glyphname = circumflexcomb;
lastChange = "2021-04-19 19:09:52 +0000";
layers = (
{
layerId = "A833981A-68C5-4528-81CD-92C717829696";
paths = (
{
closed = 1;
nodes = (
"484 534 LINE",
"730 534 LINE",
"534 736 LINE",
"330 736 LINE"
);
},
{
closed = 1;
nodes = (
"90 538 LINE",
"298 538 LINE",
"534 736 LINE",
"224 736 LINE"
);
}
);
width = 1100;
}
);
unicode = 0302;
},
{
glyphname = caroncomb;
lastChange = "2021-04-19 19:09:57 +0000";
layers = (
{
layerId = "A833981A-68C5-4528-81CD-92C717829696";
paths = (
{
closed = 1;
nodes = (
"602 534 LINE",
"798 736 LINE",
"552 736 LINE",
"398 534 LINE"
);
},
{
closed = 1;
nodes = (
"602 534 LINE",
"366 732 LINE",
"158 732 LINE",
"292 534 LINE"
);
}
);
width = 1200;
}
);
unicode = 030C;
},
{
glyphname = brevecomb;
lastChange = "2021-04-19 19:10:00 +0000";
layers = (
{
layerId = "A833981A-68C5-4528-81CD-92C717829696";
paths = (
{
closed = 1;
nodes = (
"750 771 LINE",
"150 771 LINE",
"150 579 LINE",
"750 579 LINE"
);
}
);
width = 1200;
}
);
unicode = 0306;
},
{
glyphname = ringcomb;
lastChange = "2021-04-19 19:10:03 +0000";
layers = (
{
layerId = "A833981A-68C5-4528-81CD-92C717829696";
paths = (
{
closed = 1;
nodes = (
"346 594 OFFCURVE",
"394 516 OFFCURVE",
"494 516 CURVE SMOOTH",
"590 516 OFFCURVE",
"674 590 OFFCURVE",
"674 684 CURVE SMOOTH",
"674 776 OFFCURVE",
"590 848 OFFCURVE",
"494 848 CURVE SMOOTH",
"394 848 OFFCURVE",
"346 780 OFFCURVE",
"346 688 CURVE SMOOTH"
);
},
{
closed = 1;
nodes = (
"422 738 OFFCURVE",
"460 780 OFFCURVE",
"504 780 CURVE SMOOTH",
"550 780 OFFCURVE",
"586 738 OFFCURVE",
"586 686 CURVE SMOOTH",
"586 636 OFFCURVE",
"550 594 OFFCURVE",
"504 594 CURVE SMOOTH",
"460 594 OFFCURVE",
"422 636 OFFCURVE",
"422 686 CURVE SMOOTH"
);
}
);
width = 1200;
}
);
unicode = 030A;
},
{
glyphname = tildecomb;
lastChange = "2021-04-19 19:10:06 +0000";
layers = (
{
layerId = "A833981A-68C5-4528-81CD-92C717829696";
paths = (
{
closed = 1;
nodes = (
"440 615 LINE",
"440 793 OFFCURVE",
"798 393 OFFCURVE",
"798 793 CURVE",
"578 793 LINE",
"578 627 OFFCURVE",
"220 993 OFFCURVE",
"220 615 CURVE"
);
}
);
width = 1200;
}
);
unicode = 0303;
},
{
glyphname = macroncomb;
lastChange = "2021-04-19 19:10:08 +0000";
layers = (
{
layerId = "A833981A-68C5-4528-81CD-92C717829696";
paths = (
{
closed = 1;
nodes = (
"192 596 LINE",
"756 596 LINE",
"756 752 LINE",
"192 752 LINE"
);
}
);
width = 1200;
}
);
unicode = 0304;
},
{
glyphname = commaturnedabovecomb;
lastChange = "2021-04-19 19:10:11 +0000";
layers = (
{
layerId = "A833981A-68C5-4528-81CD-92C717829696";
paths = (
{
closed = 1;
nodes = (
"135 459 LINE",
"369 459 LINE",
"369 695 LINE",
"135 695 LINE"
);
},
{
closed = 1;
nodes = (
"179 941 OFFCURVE",
"137 839 OFFCURVE",
"135 695 CURVE",
"243 695 LINE",
"243 839 OFFCURVE",
"265 877 OFFCURVE",
"295 877 CURVE",
"295 941 LINE"
);
}
);
width = 1200;
}
);
unicode = 0312;
},
{
glyphname = commaaccentcomb;
lastChange = "2021-04-19 19:10:14 +0000";
layers = (
{
layerId = "A833981A-68C5-4528-81CD-92C717829696";
paths = (
{
closed = 1;
nodes = (
"191 -200 LINE",
"451 -200 LINE",
"611 122 LINE",
"351 122 LINE"
);
}
);
width = 1200;
}
);
unicode = 0326;
},
{
glyphname = cedillacomb;
lastChange = "2021-04-19 19:10:17 +0000";
layers = (
{
layerId = "A833981A-68C5-4528-81CD-92C717829696";
paths = (
{
closed = 1;
nodes = (
"332 94 OFFCURVE",
"260 -22 OFFCURVE",
"104 -22 CURVE",
"300 -158 LINE",
"524 -160 OFFCURVE",
"608 92 OFFCURVE",
"608 180 CURVE",
"332 180 LINE"
);
}
);
width = 1200;
}
);
unicode = 0327;
},
{
glyphname = ogonekcomb;
lastChange = "2021-04-19 19:10:20 +0000";
layers = (
{
layerId = "A833981A-68C5-4528-81CD-92C717829696";
paths = (
{
closed = 1;
nodes = (
"382 211 OFFCURVE",
"294 211 OFFCURVE",
"208 211 CURVE",
"312 -109 OFFCURVE",
"380 -135 OFFCURVE",
"614 -211 CURVE",
"668 15 LINE",
"510 15 OFFCURVE",
"458 175 OFFCURVE",
"468 211 CURVE"
);
}
);
width = 1200;
}
);
unicode = 0328;
},
{
glyphname = strokeshortcomb;
lastChange = "2021-04-19 19:10:26 +0000";
layers = (
{
layerId = "A833981A-68C5-4528-81CD-92C717829696";
paths = (
{
closed = 1;
nodes = (
"82 219 LINE",
"720 219 LINE",
"720 371 LINE",
"82 371 LINE"
);
}
);
width = 1200;
}
);
unicode = 0335;
},
{
glyphname = strokelongcomb;
lastChange = "2021-04-19 19:10:28 +0000";
layers = (
{
layerId = "A833981A-68C5-4528-81CD-92C717829696";
paths = (
{
closed = 1;
nodes = (
"74 215 LINE",
"824 215 LINE",
"824 373 LINE",
"74 373 LINE"
);
}
);
width = 1200;
}
);
unicode = 0336;
},
{
glyphname = slashshortcomb;
lastChange = "2021-04-19 19:10:31 +0000";
layers = (
{
layerId = "A833981A-68C5-4528-81CD-92C717829696";
paths = (
{
closed = 1;
nodes = (
"42 246 LINE",
"302 246 LINE",
"896 686 LINE",
"634 686 LINE"
);
},
{
closed = 1;
nodes = (
"634 686 LINE",
"896 686 LINE",
"896 786 LINE",
"634 786 LINE"
);
}
);
width = 1200;
}
);
unicode = 0337;
},
{
glyphname = slashlongcomb;
lastChange = "2021-04-19 19:10:33 +0000";
layers = (
{
layerId = "A833981A-68C5-4528-81CD-92C717829696";
paths = (
{
closed = 1;
nodes = (
"42 0 LINE",
"302 0 LINE",
"896 1332 LINE",
"634 1332 LINE"
);
},
{
closed = 1;
nodes = (
"634 1332 LINE",
"896 1332 LINE",
"896 1432 LINE",
"634 1432 LINE"
);
}
